Moderustic-Light.ufo
<glyph name="question" format="2">
  <advance width="551"/>
  <unicode hex="003F"/>
  <outline>
    <component base="period" xScale="0.884334" yScale="0.884334" xOffset="122.602" yOffset="-1.31332"/>
    <contour>
      <point x="206" y="250" type="line"/>
      <point x="266" y="250" type="line"/>
      <point x="266" y="332" type="line"/>
      <point x="397" y="377"/>
      <point x="496" y="478"/>
      <point x="496" y="589" type="curve" smooth="yes"/>
      <point x="496" y="690"/>
      <point x="415" y="767"/>
      <point x="275" y="767" type="curve" smooth="yes"/>
      <point x="174" y="767"/>
      <point x="87" y="727"/>
      <point x="19" y="646" type="curve"/>
      <point x="62" y="603" type="line"/>
      <point x="116" y="675"/>
      <point x="190" y="712"/>
      <point x="277" y="712" type="curve" smooth="yes"/>
      <point x="375" y="712"/>
      <point x="436" y="676"/>
      <point x="436" y="584" type="curve" smooth="yes"/>
      <point x="436" y="481"/>
      <point x="358" y="407.603"/>
      <point x="206" y="345" type="curve"/>
    </contour>
  </outline>
</glyph>
<glyph name="D" format="2">
  <advance width="742"/>
  <unicode hex="0044"/>
  <anchor x="328" y="719" name="top"/>
  <anchor x="328" y="-20" name="bottom"/>
  <outline>
    <contour>
      <point x="154" y="54" type="line" name="sv01"/>
      <point x="154" y="646" type="line" name="sv02"/>
      <point x="332" y="646" type="line" smooth="yes"/>
      <point x="503" y="646"/>
      <point x="608" y="534"/>
      <point x="608" y="346" type="curve" smooth="yes"/>
      <point x="608" y="165"/>
      <point x="503" y="54"/>
      <point x="332" y="54" type="curve" smooth="yes"/>
    </contour>
    <contour>
      <point x="94" y="0" type="line" name="ab01"/>
      <point x="345" y="0" type="line" smooth="yes"/>
      <point x="537" y="0"/>
      <point x="669" y="142"/>
      <point x="669" y="350" type="curve" smooth="yes"/>
      <point x="669" y="557"/>
      <point x="536" y="700"/>
      <point x="345" y="700" type="curve" smooth="yes" name="at01"/>
      <point x="94" y="700" type="line"/>
    </contour>
  </outline>
</glyph>
<glyph name="G" format="2">
  <advance width="786"/>
  <unicode hex="0047"/>
  <anchor x="393" y="719" name="top"/>
  <anchor x="393" y="-20" name="bottom"/>
  <outline>
    <contour>
      <point x="638" y="303" type="line" name="dv05"/>
      <point x="638" y="0" type="line"/>
      <point x="698" y="0" type="line"/>
      <point x="698" y="357" type="line" name="dv06"/>
      <point x="351" y="357" type="line" name="av02"/>
      <point x="351" y="303" type="line" name="av03"/>
    </contour>
    <contour>
      <point x="397" y="665" type="curve" smooth="yes"/>
      <point x="487" y="665"/>
      <point x="559" y="628"/>
      <point x="612" y="556" type="curve"/>
      <point x="655" y="599" type="line"/>
      <point x="588" y="680"/>
      <point x="503" y="720"/>
      <point x="397" y="720" type="curve" smooth="yes"/>
      <point x="213" y="720"/>
      <point x="73" y="597"/>
      <point x="73" y="348" type="curve" smooth="yes"/>
      <point x="73" y="105"/>
      <point x="207" y="-20"/>
      <point x="382" y="-20" type="curve" smooth="yes" name="dv01"/>
      <point x="552" y="-20"/>
      <point x="651" y="113"/>
      <point x="650" y="254" type="curve"/>
      <point x="638" y="353" type="line" name="av01"/>
      <point x="638" y="347"/>
      <point x="638" y="302"/>
      <point x="638" y="302" type="curve" smooth="yes" name="dv07"/>
      <point x="638" y="139"/>
      <point x="550" y="35"/>
      <point x="384" y="35" type="curve" smooth="yes" name="dv02"/>
      <point x="224" y="35"/>
      <point x="134" y="151"/>
      <point x="134" y="342" type="curve" smooth="yes"/>
      <point x="134" y="565"/>
      <point x="243" y="665"/>
    </contour>
  </outline>
</glyph>
<glyph name="O" format="2">
  <advance width="795"/>
  <unicode hex="004F"/>
  <anchor x="398" y="719" name="top"/>
  <anchor x="398" y="-20" name="bottom"/>
  <anchor x="523" y="-1" name="ogonek"/>
  <anchor x="16" y="500" name="topgr"/>
  <outline>
    <contour>
      <point x="400" y="35" type="curve" smooth="yes" name="dv02"/>
      <point x="231" y="35"/>
      <point x="134" y="146"/>
      <point x="134" y="350" type="curve" smooth="yes"/>
      <point x="134" y="548"/>
      <point x="230" y="665"/>
      <point x="396" y="665" type="curve" smooth="yes" name="dv03"/>
      <point x="568" y="665"/>
      <point x="661" y="554"/>
      <point x="661" y="350" type="curve" smooth="yes" name="dv05"/>
      <point x="661" y="153"/>
      <point x="560" y="35"/>
    </contour>
    <contour>
      <point x="73" y="350" type="curve" smooth="yes"/>
      <point x="73" y="110"/>
      <point x="208" y="-20"/>
      <point x="398" y="-20" type="curve" smooth="yes" name="dv01"/>
      <point x="587" y="-20"/>
      <point x="722" y="110"/>
      <point x="722" y="350" type="curve" smooth="yes" name="dv06"/>
      <point x="722" y="578"/>
      <point x="600" y="720"/>
      <point x="399" y="720" type="curve" smooth="yes" name="dv04"/>
      <point x="204" y="720"/>
      <point x="73" y="587"/>
    </contour>
  </outline>
</glyph>
<glyph name="d" format="2">
  <advance width="635"/>
  <unicode hex="0064"/>
  <anchor x="294" y="750" name="top"/>
  <anchor x="300" y="-20" name="bottom"/>
  <anchor x="560" y="750" name="topright"/>
  <outline>
    <contour>
      <point x="289" y="-20" type="curve" smooth="yes" name="dv01"/>
      <point x="418" y="-20"/>
      <point x="490" y="81"/>
      <point x="490" y="251" type="curve" smooth="yes"/>
      <point x="490" y="423"/>
      <point x="416" y="520"/>
      <point x="284" y="520" type="curve" smooth="yes" name="at01"/>
      <point x="145" y="520"/>
      <point x="70" y="411"/>
      <point x="70" y="258" type="curve" smooth="yes"/>
      <point x="70" y="99"/>
      <point x="150" y="-20"/>
    </contour>
    <contour>
      <point x="294" y="30" type="curve" smooth="yes" name="dv02"/>
      <point x="195" y="30"/>
      <point x="130" y="118"/>
      <point x="130" y="258" type="curve" smooth="yes"/>
      <point x="130" y="390"/>
      <point x="187" y="469"/>
      <point x="290" y="469" type="curve" smooth="yes" name="sv01"/>
      <point x="399" y="469"/>
      <point x="472" y="381"/>
      <point x="472" y="254" type="curve" smooth="yes"/>
      <point x="472" y="126"/>
      <point x="397" y="30"/>
    </contour>
    <contour>
      <point x="532" y="0" type="line"/>
      <point x="532" y="750" type="line" name="ab01"/>
      <point x="472" y="750" type="line"/>
      <point x="472" y="0" type="line" name="ab03"/>
    </contour>
  </outline>
</glyph>
<glyph name="e" format="2">
  <advance width="598"/>
  <unicode hex="0065"/>
  <anchor x="299" y="520" name="top"/>
  <anchor x="299" y="-20" name="bottom"/>
  <anchor x="417" y="-3" name="ogonek"/>
  <outline>
    <contour>
      <point x="131" y="297" type="line" name="sv02"/>
      <point x="143" y="415"/>
      <point x="197" y="470"/>
      <point x="305" y="470" type="curve" smooth="yes" name="sv01"/>
      <point x="408" y="470"/>
      <point x="455" y="420"/>
      <point x="467" y="297" type="curve" name="dv04"/>
    </contour>
    <contour>
      <point x="313" y="31" type="curve" smooth="yes" name="dv02"/>
      <point x="189" y="31"/>
      <point x="129" y="110"/>
      <point x="129" y="247" type="curve" name="sv04"/>
      <point x="531" y="247" type="line" name="dv03"/>
      <point x="531" y="421"/>
      <point x="450" y="520"/>
      <point x="304" y="520" type="curve" smooth="yes" name="at01"/>
      <point x="163" y="520"/>
      <point x="68" y="427"/>
      <point x="68" y="254" type="curve" smooth="yes" name="sv03"/>
      <point x="68" y="72"/>
      <point x="173" y="-20"/>
      <point x="314" y="-20" type="curve" smooth="yes" name="dv01"/>
      <point x="403" y="-20"/>
      <point x="467" y="17"/>
      <point x="507" y="70" type="curve"/>
      <point x="471" y="106" type="line"/>
      <point x="425" y="50"/>
      <point x="374" y="31"/>
    </contour>
  </outline>
</glyph>
<glyph name="f" format="2">
  <advance width="423"/>
  <unicode hex="0066"/>
  <anchor x="249" y="750" name="top"/>
  <anchor x="182" y="-20" name="bottom"/>
  <outline>
    <contour>
      <point x="154" y="450" type="line" name="dv03"/>
      <point x="154" y="0" type="line" name="ab01"/>
      <point x="214" y="0" type="line"/>
      <point x="214" y="450" type="line" name="sv01"/>
      <point x="360" y="450" type="line"/>
      <point x="360" y="500" type="line" name="sv02"/>
      <point x="214" y="500" type="line"/>
      <point x="214" y="617" type="line" smooth="yes"/>
      <point x="214" y="678"/>
      <point x="234" y="700"/>
      <point x="269" y="700" type="curve" smooth="yes" name="dv01"/>
      <point x="287" y="700"/>
      <point x="324" y="694"/>
      <point x="349" y="686" type="curve"/>
      <point x="366" y="728" type="line"/>
      <point x="317" y="746"/>
      <point x="294" y="751"/>
      <point x="269" y="751" type="curve" smooth="yes" name="dv02"/>
      <point x="197" y="751"/>
      <point x="154" y="709"/>
      <point x="154" y="618" type="curve" smooth="yes"/>
      <point x="154" y="500" type="line" name="dv04"/>
      <point x="42" y="500" type="line"/>
      <point x="42" y="450" type="line"/>
    </contour>
  </outline>
</glyph>
<glyph name="o" format="2">
  <advance width="616"/>
  <unicode hex="006F"/>
  <anchor x="308" y="520" name="top"/>
  <anchor x="308" y="-20" name="bottom"/>
  <anchor x="411" y="-3" name="ogonek"/>
  <anchor x="308" y="520" name="topgr"/>
  <outline>
    <contour>
      <point x="79" y="250" type="curve" smooth="yes"/>
      <point x="79" y="79"/>
      <point x="158" y="-20"/>
      <point x="308" y="-20" type="curve" smooth="yes" name="dv01"/>
      <point x="457" y="-20"/>
      <point x="537" y="79"/>
      <point x="537" y="250" type="curve" smooth="yes"/>
      <point x="537" y="421"/>
      <point x="457" y="520"/>
      <point x="308" y="520" type="curve" smooth="yes" name="at01"/>
      <point x="158" y="520"/>
      <point x="79" y="421"/>
    </contour>
    <contour>
      <point x="477" y="248" type="curve" smooth="yes"/>
      <point x="477" y="102"/>
      <point x="421" y="31"/>
      <point x="308" y="31" type="curve" smooth="yes" name="dv02"/>
      <point x="193" y="31"/>
      <point x="139" y="105"/>
      <point x="139" y="253" type="curve" smooth="yes"/>
      <point x="139" y="400"/>
      <point x="196" y="469"/>
      <point x="308" y="469" type="curve" smooth="yes" name="sv01"/>
      <point x="423" y="469"/>
      <point x="477" y="397"/>
    </contour>
  </outline>
</glyph>
<glyph name="p" format="2">
  <advance width="635"/>
  <unicode hex="0070"/>
  <anchor x="342" y="520" name="top"/>
  <anchor x="351" y="-20" name="bottom"/>
  <outline>
    <contour>
      <point x="103" y="-200" type="line" name="av01"/>
      <point x="163" y="-200" type="line"/>
      <point x="163" y="500" type="line" name="av02"/>
      <point x="103" y="500" type="line"/>
    </contour>
    <contour>
      <point x="351" y="-20" type="curve" smooth="yes" name="dv01"/>
      <point x="487" y="-20"/>
      <point x="565" y="99"/>
      <point x="565" y="256" type="curve" smooth="yes"/>
      <point x="565" y="411"/>
      <point x="489" y="520"/>
      <point x="357" y="520" type="curve" smooth="yes" name="at01"/>
      <point x="220" y="520"/>
      <point x="147" y="403"/>
      <point x="147" y="247" type="curve" smooth="yes"/>
      <point x="147" y="95"/>
      <point x="217" y="-20"/>
    </contour>
    <contour>
      <point x="347" y="30" type="curve" smooth="yes" name="dv02"/>
      <point x="234" y="30"/>
      <point x="163" y="131"/>
      <point x="163" y="255" type="curve" smooth="yes"/>
      <point x="163" y="381"/>
      <point x="236" y="469"/>
      <point x="350" y="469" type="curve" smooth="yes" name="sv01"/>
      <point x="451" y="469"/>
      <point x="505" y="400"/>
      <point x="505" y="257" type="curve" smooth="yes"/>
      <point x="505" y="108"/>
      <point x="447" y="30"/>
    </contour>
  </outline>
</glyph>
<glyph name="q" format="2">
  <advance width="635"/>
  <unicode hex="0071"/>
  <anchor x="300" y="-20" name="bottom"/>
  <anchor x="301" y="520" name="top"/>
  <outline>
    <contour>
      <point x="287" y="-20" type="curve" smooth="yes" name="dv01"/>
      <point x="409" y="-20"/>
      <point x="490" y="78"/>
      <point x="490" y="257" type="curve" smooth="yes"/>
      <point x="490" y="422"/>
      <point x="421" y="520"/>
      <point x="288" y="520" type="curve" smooth="yes" name="at01"/>
      <point x="148" y="520"/>
      <point x="70" y="411"/>
      <point x="70" y="257" type="curve" smooth="yes"/>
      <point x="70" y="99"/>
      <point x="152" y="-20"/>
    </contour>
    <contour>
      <point x="296" y="30" type="curve" smooth="yes" name="dv02"/>
      <point x="197" y="30"/>
      <point x="130" y="121"/>
      <point x="130" y="256" type="curve" smooth="yes"/>
      <point x="130" y="387"/>
      <point x="194" y="469"/>
      <point x="295" y="469" type="curve" smooth="yes" name="sv01"/>
      <point x="399" y="469"/>
      <point x="472" y="381"/>
      <point x="472" y="255" type="curve" smooth="yes"/>
      <point x="472" y="131"/>
      <point x="401" y="30"/>
    </contour>
    <contour>
      <point x="532" y="-200" type="line"/>
      <point x="532" y="500" type="line"/>
      <point x="472" y="500" type="line"/>
      <point x="472" y="-200" type="line"/>
    </contour>
  </outline>
</glyph>
<glyph name="r" format="2">
  <advance width="422"/>
  <unicode hex="0072"/>
  <anchor x="235" y="520" name="top"/>
  <anchor x="132" y="-20" name="bottom"/>
  <outline>
    <contour>
      <point x="104" y="500" type="line" name="av01"/>
      <point x="104" y="0" type="line" name="ab01"/>
      <point x="164" y="0" type="line"/>
      <point x="164" y="246" type="line" smooth="yes"/>
      <point x="164" y="380"/>
      <point x="240" y="470"/>
      <point x="365" y="470" type="curve" name="sv01"/>
      <point x="365" y="520" type="line" name="at01"/>
      <point x="270" y="517"/>
      <point x="193" y="458"/>
      <point x="164" y="365" type="curve" name="iv01"/>
      <point x="164" y="500" type="line"/>
    </contour>
  </outline>
</glyph>
<glyph name="x" format="2">
  <advance width="574"/>
  <unicode hex="0078"/>
  <anchor x="287" y="520" name="top"/>
  <anchor x="287" y="-20" name="bottom"/>
  <outline>
    <contour>
      <point x="71" y="500" type="line" name="av01"/>
      <point x="242.17" y="236.42" type="line"/>
      <point x="232.18" y="261.573" type="line"/>
      <point x="62" y="0" type="line" name="ab01"/>
      <point x="136" y="0" type="line"/>
      <point x="289" y="236" type="line" name="iv01"/>
      <point x="442" y="0" type="line" name="ab02"/>
      <point x="514" y="0" type="line"/>
      <point x="350.059" y="262.726" type="line"/>
      <point x="340.059" y="237.274" type="line"/>
      <point x="504" y="500" type="line" name="av02"/>
      <point x="434" y="500" type="line"/>
      <point x="271.827" y="250.422" type="line" name="iv02"/>
      <point x="308.173" y="250.422" type="line"/>
      <point x="146" y="500" type="line"/>
    </contour>
  </outline>
</glyph>
<glyph name="onesuperior" format="2">
  <advance width="333"/>
  <unicode hex="00B9"/>
  <outline>
    <contour>
      <point x="27" y="653" type="line"/>
      <point x="127" y="680"/>
      <point x="182" y="706"/>
      <point x="213" y="742" type="curve"/>
      <point x="213" y="343" type="line"/>
      <point x="272" y="343" type="line"/>
      <point x="272" y="828" type="line"/>
      <point x="232" y="828" type="line"/>
      <point x="201" y="771"/>
      <point x="112" y="716"/>
      <point x="27" y="700" type="curve"/>
    </contour>
  </outline>
</glyph>
<glyph name="germandbls" format="2">
  <advance width="725"/>
  <unicode hex="00DF"/>
  <outline>
    <contour>
      <point x="647" y="136" type="curve" smooth="yes"/>
      <point x="647" y="50"/>
      <point x="570" y="-20"/>
      <point x="455" y="-20" type="curve" smooth="yes"/>
      <point x="379" y="-20"/>
      <point x="310" y="11"/>
      <point x="268" y="74" type="curve"/>
      <point x="304" y="110" type="line"/>
      <point x="341" y="59"/>
      <point x="392" y="31"/>
      <point x="459" y="31" type="curve" smooth="yes"/>
      <point x="537" y="31"/>
      <point x="587" y="69"/>
      <point x="587" y="127" type="curve" smooth="yes"/>
      <point x="587" y="247"/>
      <point x="371" y="255"/>
      <point x="371" y="378" type="curve" smooth="yes"/>
      <point x="371" y="466"/>
      <point x="482" y="506"/>
      <point x="482" y="596" type="curve" smooth="yes"/>
      <point x="482" y="659"/>
      <point x="429" y="699"/>
      <point x="334" y="699" type="curve" smooth="yes"/>
      <point x="225" y="699"/>
      <point x="164" y="646"/>
      <point x="164" y="555" type="curve" smooth="yes"/>
      <point x="164" y="0" type="line"/>
      <point x="104" y="0" type="line"/>
      <point x="104" y="545" type="line" smooth="yes"/>
      <point x="104" y="680"/>
      <point x="201" y="749"/>
      <point x="330" y="749" type="curve" smooth="yes"/>
      <point x="452" y="749"/>
      <point x="543" y="687"/>
      <point x="543" y="595" type="curve" smooth="yes"/>
      <point x="543" y="492"/>
      <point x="431" y="445"/>
      <point x="431" y="383" type="curve" smooth="yes"/>
      <point x="431" y="297"/>
      <point x="647" y="279"/>
    </contour>
  </outline>
</glyph>
<glyph name="ae" format="2">
  <advance width="996"/>
  <unicode hex="00E6"/>
  <anchor x="516" y="520" name="top"/>
  <anchor x="508" y="-20" name="bottom"/>
  <outline>
    <contour>
      <point x="295" y="-20" type="curve" smooth="yes" name="dv01"/>
      <point x="424" y="-20"/>
      <point x="498" y="81"/>
      <point x="498" y="252" type="curve" smooth="yes"/>
      <point x="498" y="422"/>
      <point x="424" y="520"/>
      <point x="291" y="520" type="curve" smooth="yes" name="at01"/>
      <point x="151" y="520"/>
      <point x="70" y="411"/>
      <point x="70" y="257" type="curve" smooth="yes"/>
      <point x="70" y="99"/>
      <point x="155" y="-20"/>
    </contour>
    <contour>
      <point x="301" y="30" type="curve" smooth="yes" name="dv02"/>
      <point x="197" y="30"/>
      <point x="130" y="119"/>
      <point x="130" y="256" type="curve" smooth="yes"/>
      <point x="130" y="389"/>
      <point x="194" y="469"/>
      <point x="298" y="469" type="curve" smooth="yes" name="sv01"/>
      <point x="407" y="469"/>
      <point x="482" y="381"/>
      <point x="482" y="253" type="curve" smooth="yes"/>
      <point x="482" y="124"/>
      <point x="407" y="30"/>
    </contour>
    <contour>
      <point x="542" y="0" type="line" name="sh01"/>
      <point x="542" y="500" type="line" name="av01"/>
      <point x="482" y="500" type="line"/>
      <point x="482" y="0" type="line" name="ab01"/>
    </contour>
    <contour>
      <point x="869" y="106" type="line"/>
      <point x="825" y="50"/>
      <point x="776" y="31"/>
      <point x="718" y="31" type="curve" smooth="yes" name="dv02"/>
      <point x="599" y="31"/>
      <point x="542" y="110"/>
      <point x="542" y="247" type="curve" name="sv04"/>
      <point x="929" y="247" type="line" name="dv03"/>
      <point x="929" y="421"/>
      <point x="851" y="520"/>
      <point x="709" y="520" type="curve" smooth="yes" name="at01"/>
      <point x="576" y="520"/>
      <point x="484" y="427"/>
      <point x="484" y="254" type="curve" smooth="yes" name="sv03"/>
      <point x="484" y="72"/>
      <point x="586" y="-20"/>
      <point x="718" y="-20" type="curve" smooth="yes" name="dv01"/>
      <point x="804" y="-20"/>
      <point x="866" y="17"/>
      <point x="905" y="70" type="curve"/>
    </contour>
    <contour>
      <point x="710" y="470" type="curve" smooth="yes" name="sv01"/>
      <point x="809" y="470"/>
      <point x="853" y="420"/>
      <point x="865" y="297" type="curve" name="dv04"/>
      <point x="542" y="297" type="line" name="sv02"/>
      <point x="554" y="415"/>
      <point x="605" y="470"/>
    </contour>
  </outline>
</glyph>
<glyph name="eng" format="2">
  <advance width="635"/>
  <unicode hex="014B"/>
  <outline>
    <contour>
      <point x="312" y="-198" type="line"/>
      <point x="339" y="-212"/>
      <point x="364" y="-221"/>
      <point x="402" y="-221" type="curve" smooth="yes" name="dv01"/>
      <point x="490" y="-221"/>
      <point x="531" y="-174"/>
      <point x="531" y="-68" type="curve" smooth="yes"/>
      <point x="531" y="264" type="line"/>
      <point x="471" y="264" type="line" name="av01"/>
      <point x="471" y="-50" type="line" smooth="yes"/>
      <point x="471" y="-129"/>
      <point x="448" y="-170"/>
      <point x="398" y="-170" type="curve" smooth="yes" name="dv02"/>
      <point x="380" y="-170"/>
      <point x="356" y="-165"/>
      <point x="334" y="-156" type="curve"/>
    </contour>
    <contour>
      <point x="164" y="0" type="line" name="sh01"/>
      <point x="164" y="500" type="line" name="av01"/>
      <point x="104" y="500" type="line"/>
      <point x="104" y="0" type="line" name="ab01"/>
    </contour>
    <contour>
      <point x="164" y="237" type="line" name="iv01"/>
      <point x="164" y="383"/>
      <point x="232" y="469"/>
      <point x="350" y="469" type="curve" smooth="yes" name="sv01"/>
      <point x="429" y="469"/>
      <point x="471" y="431"/>
      <point x="471" y="307" type="curve" smooth="yes"/>
      <point x="471" y="0" type="line" name="ab01"/>
      <point x="531" y="0" type="line"/>
      <point x="531" y="314" type="line" smooth="yes"/>
      <point x="531" y="461"/>
      <point x="466" y="520"/>
      <point x="371" y="520" type="curve" smooth="yes" name="at01"/>
      <point x="257" y="520"/>
      <point x="168" y="435"/>
      <point x="160" y="327" type="curve"/>
      <point x="161" y="277" type="line"/>
    </contour>
  </outline>
</glyph>
<glyph name="OE" format="2">
  <advance width="968"/>
  <unicode hex="0152"/>
  <anchor x="484" y="719" name="top"/>
  <anchor x="484" y="-20" name="bottom"/>
  <outline>
    <contour>
      <point x="565.418" y="0" type="line" name="ab01"/>
      <point x="565.418" y="700" type="line"/>
      <point x="397" y="700" type="line" smooth="yes" name="at01"/>
      <point x="206" y="700"/>
      <point x="73" y="557"/>
      <point x="73" y="350" type="curve" smooth="yes"/>
      <point x="73" y="142"/>
      <point x="205" y="0"/>
      <point x="397" y="0" type="curve" smooth="yes"/>
    </contour>
    <contour>
      <point x="510.418" y="54" type="line" name="sv01"/>
      <point x="410" y="54" type="line" smooth="yes"/>
      <point x="239" y="54"/>
      <point x="134" y="165"/>
      <point x="134" y="346" type="curve" smooth="yes"/>
      <point x="134" y="534"/>
      <point x="239" y="646"/>
      <point x="410" y="646" type="curve" smooth="yes"/>
      <point x="510.418" y="646" type="line" name="sv02"/>
    </contour>
    <contour>
      <point x="516.418" y="0" type="line"/>
      <point x="892.418" y="0" type="line" name="ab01"/>
      <point x="892.418" y="54" type="line" name="sv01"/>
      <point x="571.418" y="54" type="line"/>
      <point x="571.418" y="338" type="line" name="dv01"/>
      <point x="852.418" y="338" type="line"/>
      <point x="852.418" y="392" type="line"/>
      <point x="571.418" y="392" type="line" name="dv02"/>
      <point x="571.418" y="646" type="line" name="sv02"/>
      <point x="880.418" y="646" type="line"/>
      <point x="880.418" y="700" type="line" name="at01"/>
      <point x="516.418" y="700" type="line"/>
    </contour>
  </outline>
</glyph>
<glyph name="Schwa" format="2">
  <advance width="779"/>
  <unicode hex="018F"/>
  <anchor x="390" y="719" name="top"/>
  <anchor x="390" y="-20" name="bottom"/>
  <outline>
    <contour>
      <point x="389" y="665" type="curve" smooth="yes"/>
      <point x="294" y="665"/>
      <point x="220" y="628"/>
      <point x="166" y="556" type="curve"/>
      <point x="123" y="599" type="line"/>
      <point x="191" y="680"/>
      <point x="278" y="720"/>
      <point x="384" y="720" type="curve" smooth="yes"/>
      <point x="583" y="720"/>
      <point x="706" y="581"/>
      <point x="706" y="356" type="curve" smooth="yes" name="sh03"/>
      <point x="706" y="129"/>
      <point x="581" y="-20"/>
      <point x="392" y="-20" type="curve" smooth="yes" name="dv01"/>
      <point x="203" y="-20"/>
      <point x="73" y="129"/>
      <point x="73" y="331" type="curve" smooth="yes" name="sh01"/>
      <point x="73" y="356"/>
      <point x="75" y="377"/>
      <point x="77" y="392" type="curve" name="sh04"/>
      <point x="658" y="392" type="line" name="dv06"/>
      <point x="659" y="338" type="line" name="dv05"/>
      <point x="134" y="338" type="line" name="sh02"/>
      <point x="134" y="155"/>
      <point x="235" y="35"/>
      <point x="390" y="35" type="curve" smooth="yes" name="dv02"/>
      <point x="545" y="35"/>
      <point x="645" y="156"/>
      <point x="645" y="360" type="curve" smooth="yes"/>
      <point x="645" y="556"/>
      <point x="553" y="665"/>
    </contour>
  </outline>
</glyph>
<glyph name="tildecomb" format="2">
  <advance width="443"/>
  <unicode hex="0303"/>
  <anchor x="222" y="670" name="top"/>
  <anchor x="222" y="500" name="_top"/>
  <outline>
    <contour>
      <point x="70" y="590" type="line"/>
      <point x="70" y="658.708"/>
      <point x="105" y="687"/>
      <point x="150" y="687" type="curve" smooth="yes"/>
      <point x="208" y="687"/>
      <point x="238" y="635"/>
      <point x="278" y="635" type="curve" smooth="yes"/>
      <point x="304" y="635"/>
      <point x="317" y="650.755"/>
      <point x="320" y="685" type="curve"/>
      <point x="370" y="685" type="line"/>
      <point x="370" y="617.653"/>
      <point x="329" y="590"/>
      <point x="278" y="590" type="curve" smooth="yes"/>
      <point x="217" y="590"/>
      <point x="195" y="642"/>
      <point x="156" y="642" type="curve" smooth="yes"/>
      <point x="133" y="642"/>
      <point x="123" y="624.667"/>
      <point x="120" y="590" type="curve"/>
    </contour>
  </outline>
</glyph>
<glyph name="dieresiscomb" format="2">
  <advance width="407"/>
  <unicode hex="0308"/>
  <anchor x="204" y="647" name="top"/>
  <anchor x="204" y="500" name="_top"/>
  <anchor x="204" y="500" name="_topgr"/>
  <outline>
    <contour>
      <point x="62.2611" y="629.967" type="curve" smooth="yes"/>
      <point x="62.2611" y="613.171"/>
      <point x="74.3915" y="594.508"/>
      <point x="98.6523" y="594.508" type="curve" smooth="yes" name="dv01"/>
      <point x="122.913" y="594.508"/>
      <point x="134.11" y="612.237"/>
      <point x="134.11" y="629.967" type="curve" smooth="yes"/>
      <point x="134.11" y="647.696"/>
      <point x="122.913" y="664.492"/>
      <point x="98.6523" y="664.492" type="curve" smooth="yes" name="dv02"/>
      <point x="74.3915" y="664.492"/>
      <point x="62.2611" y="646.763"/>
    </contour>
    <contour>
      <point x="272.889" y="629.967" type="curve" smooth="yes"/>
      <point x="272.889" y="613.171"/>
      <point x="285.02" y="594.508"/>
      <point x="309.281" y="594.508" type="curve" smooth="yes" name="dv01.1"/>
      <point x="333.542" y="594.508"/>
      <point x="344.739" y="612.237"/>
      <point x="344.739" y="629.967" type="curve" smooth="yes"/>
      <point x="344.739" y="647.696"/>
      <point x="333.542" y="664.492"/>
      <point x="309.281" y="664.492" type="curve" smooth="yes" name="dv02.1"/>
      <point x="285.02" y="664.492"/>
      <point x="272.889" y="646.763"/>
    </contour>
  </outline>
</glyph>
<glyph name="hungarumlautcomb" format="2">
  <advance width="389"/>
  <unicode hex="030B"/>
  <anchor x="218" y="702" name="top"/>
  <anchor x="152" y="500" name="_top"/>
  <outline>
    <contour>
      <point x="251" y="551" type="line"/>
      <point x="351" y="700" type="line"/>
      <point x="271" y="700" type="line"/>
      <point x="211" y="551" type="line"/>
    </contour>
    <contour>
      <point x="41" y="551" type="line"/>
      <point x="81" y="551" type="line"/>
      <point x="181" y="700" type="line"/>
      <point x="101" y="700" type="line"/>
    </contour>
  </outline>
</glyph>
<glyph name="numeral-greek" format="2">
  <advance width="243"/>
  <unicode hex="0374"/>
  <outline>
    <contour>
      <point x="35" y="498" type="line"/>
      <point x="124" y="498" type="line"/>
      <point x="203" y="715" type="line"/>
      <point x="156" y="715" type="line"/>
    </contour>
  </outline>
</glyph>
<glyph name="Xi" format="2">
  <advance width="593"/>
  <unicode hex="039E"/>
  <outline>
    <contour>
      <point x="85" y="646" type="line"/>
      <point x="518" y="646" type="line"/>
      <point x="518" y="700" type="line"/>
      <point x="85" y="700" type="line"/>
    </contour>
    <contour>
      <point x="85" y="54" type="line"/>
      <point x="85" y="0" type="line"/>
      <point x="518" y="0" type="line"/>
      <point x="518" y="54" type="line"/>
    </contour>
    <contour>
      <point x="463" y="322" type="line"/>
      <point x="463" y="376" type="line"/>
      <point x="141" y="376" type="line"/>
      <point x="141" y="322" type="line"/>
    </contour>
  </outline>
</glyph>
<glyph name="Psi" format="2">
  <advance width="883"/>
  <unicode hex="03A8"/>
  <anchor x="442" y="720" name="topgr"/>
  <outline>
    <contour>
      <point x="471" y="0" type="line"/>
      <point x="471" y="700" type="line"/>
      <point x="411" y="700" type="line"/>
      <point x="411" y="0" type="line"/>
    </contour>
    <contour>
      <point x="90" y="445" type="line" smooth="yes"/>
      <point x="90" y="288"/>
      <point x="215" y="194"/>
      <point x="441" y="194" type="curve" smooth="yes"/>
      <point x="657" y="194"/>
      <point x="793" y="280"/>
      <point x="793" y="445" type="curve" smooth="yes"/>
      <point x="793" y="701" type="line"/>
      <point x="733" y="701" type="line"/>
      <point x="733" y="436" type="line" smooth="yes"/>
      <point x="733" y="314"/>
      <point x="623" y="249"/>
      <point x="445" y="249" type="curve" smooth="yes"/>
      <point x="256" y="249"/>
      <point x="150" y="323"/>
      <point x="150" y="436" type="curve" smooth="yes"/>
      <point x="150" y="701" type="line"/>
      <point x="90" y="701" type="line"/>
    </contour>
  </outline>
</glyph>
<glyph name="alpha" format="2">
  <advance width="673"/>
  <unicode hex="03B1"/>
  <anchor x="310" y="520" name="topgr"/>
  <outline>
    <contour>
      <point x="272" y="-20" type="curve" smooth="yes"/>
      <point x="153" y="-20"/>
      <point x="70" y="90"/>
      <point x="70" y="255" type="curve" smooth="yes"/>
      <point x="70" y="423"/>
      <point x="157" y="520"/>
      <point x="281" y="520" type="curve" smooth="yes"/>
      <point x="399.022" y="520"/>
      <point x="484.542" y="431.954"/>
      <point x="530.698" y="288.059" type="curve" smooth="yes"/>
      <point x="556.5" y="207.618"/>
      <point x="570" y="109.724"/>
      <point x="570" y="0" type="curve"/>
      <point x="511" y="0" type="line"/>
      <point x="511" y="86.2427"/>
      <point x="509.529" y="217.205"/>
      <point x="474.831" y="319" type="curve" smooth="yes"/>
      <point x="445.558" y="404.879"/>
      <point x="392.637" y="470"/>
      <point x="297" y="470" type="curve" smooth="yes"/>
      <point x="193" y="470"/>
      <point x="130" y="393"/>
      <point x="130" y="256" type="curve" smooth="yes"/>
      <point x="130" y="116"/>
      <point x="196" y="30"/>
      <point x="294" y="30" type="curve" smooth="yes"/>
      <point x="411.45" y="30"/>
      <point x="469.347" y="154.934"/>
      <point x="494.299" y="289.242" type="curve" smooth="yes"/>
      <point x="508.012" y="363.058"/>
      <point x="511.773" y="439.706"/>
      <point x="510" y="500" type="curve"/>
      <point x="570" y="500" type="line"/>
      <point x="570" y="409.82"/>
      <point x="557.497" y="324.481"/>
      <point x="534.861" y="250" type="curve" smooth="yes"/>
      <point x="486.21" y="89.9194"/>
      <point x="390.749" y="-20"/>
    </contour>
  </outline>
</glyph>
<glyph name="eta" format="2">
  <advance width="630"/>
  <unicode hex="03B7"/>
  <anchor x="300" y="520" name="topgr"/>
  <outline>
    <contour>
      <point x="43" y="470" type="line"/>
      <point x="80" y="470"/>
      <point x="109" y="456"/>
      <point x="109" y="396" type="curve" smooth="yes"/>
      <point x="109" y="0" type="line"/>
      <point x="169" y="0" type="line"/>
      <point x="169" y="384" type="line" smooth="yes"/>
      <point x="169" y="478"/>
      <point x="139" y="520"/>
      <point x="43" y="520" type="curve"/>
    </contour>
    <contour>
      <point x="162" y="301" type="line"/>
      <point x="169" y="259" type="line" name="iv01"/>
      <point x="169" y="391"/>
      <point x="235" y="470"/>
      <point x="344" y="470" type="curve" smooth="yes" name="sv01"/>
      <point x="430" y="470"/>
      <point x="466" y="421"/>
      <point x="466" y="308" type="curve" smooth="yes"/>
      <point x="466" y="-200" type="line" name="ab01"/>
      <point x="526" y="-200" type="line"/>
      <point x="526" y="304" type="line" smooth="yes"/>
      <point x="526" y="451"/>
      <point x="470" y="520"/>
      <point x="368" y="520" type="curve" smooth="yes" name="at01"/>
      <point x="251" y="520"/>
      <point x="174" y="430"/>
      <point x="161" y="352" type="curve"/>
    </contour>
  </outline>
</glyph>
<glyph name="sigma" format="2">
  <advance width="648"/>
  <unicode hex="03C3"/>
  <anchor x="308" y="-20" name="bottom"/>
  <anchor x="411" y="-3" name="ogonek"/>
  <anchor x="308" y="520" name="topgr"/>
  <outline>
    <contour>
      <point x="79" y="240" type="curve" smooth="yes"/>
      <point x="79" y="75.3333"/>
      <point x="158" y="-20"/>
      <point x="308" y="-20" type="curve" smooth="yes" name="dv01"/>
      <point x="457" y="-20"/>
      <point x="537" y="75.3333"/>
      <point x="537" y="240" type="curve" smooth="yes"/>
      <point x="537" y="404.667"/>
      <point x="457" y="500"/>
      <point x="308" y="500" type="curve" smooth="yes" name="at01"/>
      <point x="158" y="500"/>
      <point x="79" y="404.667"/>
    </contour>
    <contour>
      <point x="477" y="238.074" type="curve" smooth="yes"/>
      <point x="477" y="97.4815"/>
      <point x="421" y="29.1111"/>
      <point x="308" y="29.1111" type="curve" smooth="yes" name="dv02"/>
      <point x="193" y="29.1111"/>
      <point x="139" y="100.37"/>
      <point x="139" y="242.889" type="curve" smooth="yes"/>
      <point x="139" y="384.444"/>
      <point x="196" y="450.889"/>
      <point x="308" y="450.889" type="curve" smooth="yes" name="sv01"/>
      <point x="423" y="450.889"/>
      <point x="477" y="381.556"/>
    </contour>
    <contour>
      <point x="301" y="500" type="line"/>
      <point x="333" y="450" type="line"/>
      <point x="591" y="450" type="line"/>
      <point x="591" y="500" type="line"/>
    </contour>
  </outline>
</glyph>
<glyph name="Tshecyr" format="2">
  <advance width="752"/>
  <unicode hex="040B"/>
  <outline>
    <contour>
      <point x="51" y="700" type="line"/>
      <point x="51" y="646" type="line"/>
      <point x="214" y="646" type="line"/>
      <point x="214" y="0" type="line"/>
      <point x="274" y="0" type="line"/>
      <point x="274" y="646" type="line"/>
      <point x="532" y="646" type="line"/>
      <point x="532" y="700" type="line"/>
    </contour>
    <contour>
      <point x="648" y="0" type="line"/>
      <point x="648" y="272" type="line" smooth="yes"/>
      <point x="648" y="418"/>
      <point x="582" y="478"/>
      <point x="476" y="478" type="curve" smooth="yes"/>
      <point x="357" y="478"/>
      <point x="274" y="390"/>
      <point x="266" y="310" type="curve"/>
      <point x="274" y="253" type="line"/>
      <point x="274" y="346"/>
      <point x="357" y="423"/>
      <point x="465" y="423" type="curve" smooth="yes"/>
      <point x="545" y="423"/>
      <point x="588" y="379"/>
      <point x="588" y="270" type="curve" smooth="yes"/>
      <point x="588" y="0" type="line"/>
    </contour>
  </outline>
</glyph>
<glyph name="Becyr" format="2">
  <advance width="633"/>
  <unicode hex="0411"/>
  <outline>
    <component base="Softcyr"/>
    <contour>
      <point x="148" y="646" type="line"/>
      <point x="520" y="646" type="line"/>
      <point x="520" y="700" type="line"/>
      <point x="135" y="700" type="line"/>
      <point x="135" y="695" type="line"/>
    </contour>
  </outline>
</glyph>
<glyph name="Zhecyr" format="2">
  <advance width="925"/>
  <unicode hex="0416"/>
  <anchor x="463" y="720" name="top"/>
  <outline>
    <contour>
      <point x="58" y="0" type="line"/>
      <point x="122" y="0" type="line"/>
      <point x="252" y="357" type="line"/>
      <point x="197" y="382" type="line"/>
    </contour>
    <contour>
      <point x="804" y="0" type="line"/>
      <point x="868" y="0" type="line"/>
      <point x="728" y="384" type="line"/>
      <point x="673" y="359" type="line"/>
    </contour>
    <contour>
      <point x="122" y="479" type="line"/>
      <point x="134" y="381"/>
      <point x="172" y="348"/>
      <point x="274" y="348" type="curve" smooth="yes"/>
      <point x="472" y="348" type="line"/>
      <point x="472" y="402" type="line"/>
      <point x="262" y="402" type="line" smooth="yes"/>
      <point x="194" y="402"/>
      <point x="185" y="444"/>
      <point x="178" y="520" type="curve"/>
      <point x="161" y="700" type="line"/>
      <point x="101" y="700" type="line"/>
    </contour>
    <contour>
      <point x="433" y="0" type="line" name="av01"/>
      <point x="493" y="0" type="line"/>
      <point x="493" y="700" type="line" name="av02"/>
      <point x="433" y="700" type="line"/>
    </contour>
    <contour>
      <point x="454" y="402" type="line"/>
      <point x="454" y="348" type="line"/>
      <point x="652" y="348" type="line" smooth="yes"/>
      <point x="750" y="348"/>
      <point x="793" y="387"/>
      <point x="804" y="479" type="curve"/>
      <point x="825" y="700" type="line"/>
      <point x="765" y="700" type="line"/>
      <point x="748" y="520" type="line"/>
      <point x="739" y="424"/>
      <point x="720" y="402"/>
      <point x="661" y="402" type="curve" smooth="yes"/>
    </contour>
  </outline>
</glyph>
<glyph name="zhecyr" format="2">
  <advance width="800"/>
  <unicode hex="0436"/>
  <anchor x="400" y="520" name="top"/>
  <anchor x="398" y="-20" name="bottom"/>
  <outline>
    <contour>
      <point x="46" y="0" type="line"/>
      <point x="113" y="0" type="line" name="ab02"/>
      <point x="226" y="254" type="line" name="iv01"/>
      <point x="164" y="265" type="line"/>
    </contour>
    <contour>
      <point x="687" y="0" type="line" name="ab02"/>
      <point x="754" y="0" type="line"/>
      <point x="635" y="267" type="line"/>
      <point x="573" y="256" type="line" name="iv01"/>
    </contour>
    <contour>
      <point x="101" y="356" type="line"/>
      <point x="112" y="280"/>
      <point x="155" y="241"/>
      <point x="230" y="241" type="curve" smooth="yes"/>
      <point x="397" y="241" type="line" name="dv01"/>
      <point x="397" y="291" type="line" name="dv02"/>
      <point x="251" y="291" type="line" smooth="yes"/>
      <point x="179" y="291"/>
      <point x="160" y="320"/>
      <point x="153" y="379" type="curve"/>
      <point x="141" y="500" type="line"/>
      <point x="84" y="500" type="line" name="av02"/>
    </contour>
    <contour>
      <point x="370" y="0" type="line" name="ab01"/>
      <point x="430" y="0" type="line"/>
      <point x="430" y="500" type="line"/>
      <point x="370" y="500" type="line" name="av01"/>
    </contour>
    <contour>
      <point x="403" y="291" type="line" name="dv02"/>
      <point x="403" y="241" type="line" name="dv01"/>
      <point x="569" y="241" type="line" smooth="yes"/>
      <point x="644" y="241"/>
      <point x="687" y="282"/>
      <point x="698" y="358" type="curve"/>
      <point x="716" y="500" type="line" name="av02"/>
      <point x="659" y="500" type="line"/>
      <point x="647" y="379" type="line"/>
      <point x="640" y="320"/>
      <point x="621" y="291"/>
      <point x="549" y="291" type="curve" smooth="yes"/>
    </contour>
  </outline>
</glyph>
<glyph name="icyr" format="2">
  <advance width="629"/>
  <unicode hex="0438"/>
  <anchor x="315" y="520" name="top"/>
  <anchor x="315" y="-20" name="bottom"/>
  <outline>
    <contour>
      <point x="100" y="500" type="line"/>
      <point x="100" y="0" type="line"/>
      <point x="157" y="0" type="line"/>
      <point x="469" y="414" type="line"/>
      <point x="469" y="0" type="line"/>
      <point x="529" y="0" type="line"/>
      <point x="529" y="500" type="line"/>
      <point x="471" y="500" type="line"/>
      <point x="160" y="88" type="line"/>
      <point x="160" y="500" type="line"/>
    </contour>
  </outline>
</glyph>
<glyph name="kacyr" format="2">
  <advance width="588"/>
  <unicode hex="043A"/>
  <anchor x="288" y="520" name="top"/>
  <anchor x="288" y="-20" name="bottom"/>
  <outline>
    <contour>
      <point x="94" y="0" type="line" name="ab01"/>
      <point x="154" y="0" type="line"/>
      <point x="154" y="500" type="line"/>
      <point x="94" y="500" type="line" name="av01"/>
    </contour>
    <contour>
      <point x="466" y="0" type="line" name="ab02"/>
      <point x="532" y="0" type="line"/>
      <point x="409" y="276" type="line"/>
      <point x="348" y="265" type="line" name="iv01"/>
    </contour>
    <contour>
      <point x="141" y="291" type="line" name="dv02"/>
      <point x="141" y="241" type="line" name="dv01"/>
      <point x="362" y="241" type="line" smooth="yes"/>
      <point x="423" y="241"/>
      <point x="465" y="265"/>
      <point x="475" y="345" type="curve" smooth="yes"/>
      <point x="494" y="500" type="line" name="av02"/>
      <point x="439" y="500" type="line"/>
      <point x="421" y="353" type="line" smooth="yes"/>
      <point x="415" y="308"/>
      <point x="404" y="291"/>
      <point x="360" y="291" type="curve" smooth="yes"/>
    </contour>
  </outline>
</glyph>
<glyph name="tecyr" format="2">
  <advance width="525"/>
  <unicode hex="0442"/>
  <anchor x="262" y="-20" name="bottom"/>
  <anchor x="263" y="520" name="top"/>
  <outline>
    <contour>
      <point x="52" y="500" type="line"/>
      <point x="52" y="450" type="line"/>
      <point x="232" y="450" type="line"/>
      <point x="232" y="0" type="line"/>
      <point x="293" y="0" type="line"/>
      <point x="293" y="450" type="line"/>
      <point x="473" y="450" type="line"/>
      <point x="473" y="500" type="line"/>
    </contour>
  </outline>
</glyph>
<glyph name="efcyr" format="2">
  <advance width="844"/>
  <unicode hex="0444"/>
  <outline>
    <contour>
      <point x="440" y="71" type="line"/>
      <point x="401" y="42"/>
      <point x="357" y="31"/>
      <point x="309" y="31" type="curve" smooth="yes" name="dv02"/>
      <point x="194" y="31"/>
      <point x="139" y="105"/>
      <point x="139" y="253" type="curve" smooth="yes"/>
      <point x="139" y="400"/>
      <point x="193" y="469"/>
      <point x="305" y="469" type="curve" smooth="yes" name="sv01"/>
      <point x="340" y="469"/>
      <point x="373" y="463"/>
      <point x="404" y="448" type="curve"/>
      <point x="441" y="487" type="line"/>
      <point x="405" y="508"/>
      <point x="361" y="520"/>
      <point x="309" y="520" type="curve" smooth="yes" name="at01"/>
      <point x="159" y="520"/>
      <point x="79" y="421"/>
      <point x="79" y="250" type="curve" smooth="yes"/>
      <point x="79" y="79"/>
      <point x="159" y="-20"/>
      <point x="309" y="-20" type="curve" smooth="yes" name="dv01"/>
      <point x="360" y="-20"/>
      <point x="405" y="-8"/>
      <point x="441" y="11" type="curve"/>
    </contour>
    <contour>
      <point x="392" y="-200" type="line"/>
      <point x="452" y="-200" type="line"/>
      <point x="452" y="750" type="line"/>
      <point x="392" y="750" type="line"/>
    </contour>
    <contour>
      <point x="402" y="11" type="line"/>
      <point x="438" y="-8"/>
      <point x="484" y="-20"/>
      <point x="535" y="-20" type="curve" smooth="yes" name="dv01"/>
      <point x="685" y="-20"/>
      <point x="765" y="79"/>
      <point x="765" y="250" type="curve" smooth="yes"/>
      <point x="765" y="421"/>
      <point x="685" y="520"/>
      <point x="535" y="520" type="curve" smooth="yes" name="at01"/>
      <point x="483" y="520"/>
      <point x="439" y="508"/>
      <point x="404" y="487" type="curve"/>
      <point x="412" y="429" type="line"/>
      <point x="439" y="455"/>
      <point x="488" y="469"/>
      <point x="539" y="469" type="curve" smooth="yes" name="sv01"/>
      <point x="651" y="469"/>
      <point x="705" y="400"/>
      <point x="705" y="253" type="curve" smooth="yes"/>
      <point x="705" y="105"/>
      <point x="650" y="31"/>
      <point x="535" y="31" type="curve" smooth="yes" name="dv02"/>
      <point x="488" y="31"/>
      <point x="444" y="41"/>
      <point x="406" y="70" type="curve"/>
    </contour>
  </outline>
</glyph>
<glyph name="djecyr" format="2">
  <advance width="665"/>
  <unicode hex="0452"/>
  <outline>
    <contour>
      <point x="342" y="-198" type="line"/>
      <point x="369" y="-212"/>
      <point x="394" y="-221"/>
      <point x="432" y="-221" type="curve" smooth="yes" name="dv01"/>
      <point x="520" y="-221"/>
      <point x="561" y="-174"/>
      <point x="561" y="-68" type="curve" smooth="yes"/>
      <point x="561" y="260" type="line"/>
      <point x="501" y="260" type="line" name="av01"/>
      <point x="501" y="-50" type="line" smooth="yes"/>
      <point x="501" y="-129"/>
      <point x="478" y="-170"/>
      <point x="428" y="-170" type="curve" smooth="yes" name="dv02"/>
      <point x="410" y="-170"/>
      <point x="386" y="-165"/>
      <point x="364" y="-156" type="curve"/>
    </contour>
    <contour>
      <point x="194" y="0" type="line"/>
      <point x="194" y="750" type="line" name="ab01"/>
      <point x="134" y="750" type="line"/>
      <point x="134" y="0" type="line" name="ab03"/>
    </contour>
    <contour>
      <point x="194" y="217" type="line" name="iv01"/>
      <point x="194" y="363"/>
      <point x="262" y="449"/>
      <point x="380" y="449" type="curve" smooth="yes" name="sv01"/>
      <point x="459" y="449"/>
      <point x="501" y="411"/>
      <point x="501" y="287" type="curve" smooth="yes"/>
      <point x="501" y="0" type="line" name="ab01"/>
      <point x="561" y="0" type="line"/>
      <point x="561" y="294" type="line" smooth="yes"/>
      <point x="561" y="441"/>
      <point x="496" y="500"/>
      <point x="401" y="500" type="curve" smooth="yes" name="at01"/>
      <point x="287" y="500"/>
      <point x="198" y="415"/>
      <point x="190" y="307" type="curve"/>
      <point x="191" y="257" type="line"/>
    </contour>
    <contour>
      <point x="30" y="626" type="line"/>
      <point x="30" y="590" type="line"/>
      <point x="411" y="590" type="line"/>
      <point x="411" y="626" type="line"/>
    </contour>
  </outline>
</glyph>
<glyph name="ljecyr" format="2">
  <advance width="820"/>
  <unicode hex="0459"/>
  <outline>
    <contour>
      <point x="441" y="285" type="line"/>
      <point x="441" y="235" type="line"/>
      <point x="595" y="235" type="line" smooth="yes"/>
      <point x="660" y="235"/>
      <point x="690" y="206.457"/>
      <point x="690" y="145.143" type="curve" smooth="yes"/>
      <point x="690" y="80.6571"/>
      <point x="659" y="50"/>
      <point x="597" y="50" type="curve" smooth="yes"/>
      <point x="465" y="50" type="line"/>
      <point x="460" y="170" type="line"/>
      <point x="417" y="102" type="line"/>
      <point x="447" y="10" type="line"/>
      <point x="467" y="0" type="line"/>
      <point x="596" y="0" type="line" smooth="yes"/>
      <point x="691" y="0"/>
      <point x="750" y="57"/>
      <point x="750" y="149.236" type="curve" smooth="yes"/>
      <point x="750" y="237.327"/>
      <point x="702" y="285"/>
      <point x="592" y="285" type="curve" smooth="yes"/>
    </contour>
    <contour>
      <point x="145" y="500" type="line"/>
      <point x="145" y="199"/>
      <point x="135" y="30"/>
      <point x="79" y="30" type="curve" smooth="yes"/>
      <point x="67" y="30"/>
      <point x="60" y="32"/>
      <point x="50" y="34" type="curve"/>
      <point x="39" y="-16" type="line"/>
      <point x="52" y="-18"/>
      <point x="72" y="-20"/>
      <point x="85" y="-20" type="curve" smooth="yes"/>
      <point x="166" y="-20"/>
      <point x="205" y="66"/>
      <point x="205" y="450" type="curve"/>
      <point x="407" y="450" type="line"/>
      <point x="407" y="0" type="line"/>
      <point x="467" y="0" type="line"/>
      <point x="467" y="500" type="line"/>
    </contour>
  </outline>
</glyph>
<glyph name="tshecyr" format="2">
  <advance width="665"/>
  <unicode hex="045B"/>
  <outline>
    <contour>
      <point x="194" y="0" type="line"/>
      <point x="194" y="750" type="line" name="ab01"/>
      <point x="134" y="750" type="line"/>
      <point x="134" y="0" type="line" name="ab03"/>
    </contour>
    <contour>
      <point x="194" y="217" type="line" name="iv01"/>
      <point x="194" y="363"/>
      <point x="262" y="449"/>
      <point x="380" y="449" type="curve" smooth="yes" name="sv01"/>
      <point x="459" y="449"/>
      <point x="501" y="411"/>
      <point x="501" y="287" type="curve" smooth="yes"/>
      <point x="501" y="0" type="line" name="ab01"/>
      <point x="561" y="0" type="line"/>
      <point x="561" y="294" type="line" smooth="yes"/>
      <point x="561" y="441"/>
      <point x="496" y="500"/>
      <point x="401" y="500" type="curve" smooth="yes" name="at01"/>
      <point x="287" y="500"/>
      <point x="198" y="415"/>
      <point x="190" y="307" type="curve"/>
      <point x="191" y="257" type="line"/>
    </contour>
    <contour>
      <point x="30" y="626" type="line"/>
      <point x="30" y="590" type="line"/>
      <point x="435" y="590" type="line"/>
      <point x="435" y="626" type="line"/>
    </contour>
  </outline>
</glyph>
<glyph name="quotesinglbase" format="2">
  <advance width="308"/>
  <unicode hex="201A"/>
  <outline>
    <contour>
      <point x="114" y="25" type="curve" smooth="yes"/>
      <point x="114" y="0"/>
      <point x="133" y="-20"/>
      <point x="159" y="-20" type="curve" smooth="yes"/>
      <point x="170" y="-20"/>
      <point x="181" y="-16"/>
      <point x="189" y="-9" type="curve"/>
      <point x="181" y="-49"/>
      <point x="149" y="-95"/>
      <point x="109" y="-120" type="curve"/>
      <point x="116" y="-130" type="line"/>
      <point x="166" y="-94"/>
      <point x="204" y="-34"/>
      <point x="204" y="15" type="curve" smooth="yes"/>
      <point x="204" y="51"/>
      <point x="183" y="70"/>
      <point x="159" y="70" type="curve" smooth="yes"/>
      <point x="133" y="70"/>
      <point x="114" y="49"/>
    </contour>
  </outline>
</glyph>
<glyph name="six.superior" format="2">
  <advance width="450"/>
  <unicode hex="2076"/>
  <outline>
    <contour>
      <point x="126" y="498" type="curve" smooth="yes"/>
      <point x="126" y="566"/>
      <point x="165" y="610"/>
      <point x="233" y="610" type="curve" smooth="yes"/>
      <point x="291" y="610"/>
      <point x="332" y="578"/>
      <point x="332" y="499" type="curve" smooth="yes"/>
      <point x="332" y="422"/>
      <point x="294" y="388"/>
      <point x="233" y="388" type="curve" smooth="yes"/>
      <point x="166" y="388"/>
      <point x="126" y="429"/>
    </contour>
    <contour>
      <point x="237" y="782" type="curve" smooth="yes"/>
      <point x="276" y="782"/>
      <point x="311" y="766"/>
      <point x="339" y="737" type="curve"/>
      <point x="379" y="777" type="line"/>
      <point x="352" y="809"/>
      <point x="293" y="833"/>
      <point x="239" y="833" type="curve" smooth="yes"/>
      <point x="128" y="833"/>
      <point x="61" y="732"/>
      <point x="61" y="569" type="curve" smooth="yes"/>
      <point x="61" y="408"/>
      <point x="126" y="337"/>
      <point x="230" y="337" type="curve" smooth="yes"/>
      <point x="336" y="337"/>
      <point x="391" y="411"/>
      <point x="391" y="503" type="curve" smooth="yes"/>
      <point x="391" y="613"/>
      <point x="313" y="657"/>
      <point x="241" y="657" type="curve" smooth="yes"/>
      <point x="174" y="657"/>
      <point x="120" y="619"/>
      <point x="104" y="563" type="curve"/>
      <point x="104" y="718"/>
      <point x="159" y="782"/>
    </contour>
  </outline>
</glyph>
<glyph name="radical" format="2">
  <advance width="660"/>
  <unicode hex="221A"/>
  <outline>
    <contour>
      <point x="381" y="-125.966" type="line"/>
      <point x="680.673" y="797" type="line"/>
      <point x="617.673" y="797" type="line"/>
      <point x="332" y="-82.9661" type="line"/>
      <point x="195" y="274.034" type="line"/>
      <point x="21" y="274.034" type="line"/>
      <point x="21" y="220.034" type="line"/>
      <point x="150" y="220.034" type="line"/>
      <point x="283" y="-125.966" type="line"/>
    </contour>
  </outline>
</glyph>
<glyph name="Euro.ss10" format="2">
  <advance width="714"/>
  <outline>
    <contour>
      <point x="392" y="720" type="curve" smooth="yes"/>
      <point x="487" y="720"/>
      <point x="564" y="682"/>
      <point x="632" y="603" type="curve"/>
      <point x="609" y="537" type="line"/>
      <point x="531" y="646"/>
      <point x="460" y="665"/>
      <point x="396" y="665" type="curve" smooth="yes"/>
      <point x="263" y="665"/>
      <point x="196" y="582"/>
      <point x="178" y="434" type="curve"/>
      <point x="491" y="434" type="line"/>
      <point x="482" y="394" type="line"/>
      <point x="36" y="394" type="line"/>
      <point x="45" y="434" type="line"/>
      <point x="117" y="434" type="line"/>
      <point x="138" y="607"/>
      <point x="229" y="720"/>
    </contour>
    <contour>
      <point x="402" y="-20" type="curve" smooth="yes"/>
      <point x="496" y="-20"/>
      <point x="573" y="18"/>
      <point x="641" y="97" type="curve"/>
      <point x="618" y="163" type="line"/>
      <point x="558" y="60"/>
      <point x="480" y="35"/>
      <point x="406" y="35" type="curve" smooth="yes"/>
      <point x="271" y="35"/>
      <point x="200" y="119"/>
      <point x="179" y="270" type="curve"/>
      <point x="463" y="270" type="line"/>
      <point x="472" y="310" type="line"/>
      <point x="46" y="310" type="line"/>
      <point x="35" y="270" type="line"/>
      <point x="119" y="270" type="line"/>
      <point x="142" y="97"/>
      <point x="237" y="-20"/>
    </contour>
  </outline>
</glyph>
<glyph name="Euro.ss12" format="2">
  <advance width="695"/>
  <outline>
    <contour>
      <point x="507" y="427" type="line"/>
      <point x="184" y="427" type="line"/>
      <point x="213" y="590"/>
      <point x="276" y="665"/>
      <point x="396" y="665" type="curve" smooth="yes"/>
      <point x="480" y="665"/>
      <point x="555" y="620"/>
      <point x="614" y="546" type="curve"/>
      <point x="620" y="595" type="line"/>
      <point x="559" y="675"/>
      <point x="492" y="720"/>
      <point x="398" y="720" type="curve" smooth="yes"/>
      <point x="238" y="720"/>
      <point x="149" y="610"/>
      <point x="125" y="427" type="curve"/>
      <point x="69" y="427" type="line"/>
      <point x="61" y="387" type="line"/>
      <point x="499" y="387" type="line"/>
    </contour>
    <contour>
      <point x="400" y="35" type="curve" smooth="yes"/>
      <point x="485" y="35"/>
      <point x="558" y="80"/>
      <point x="616" y="154" type="curve"/>
      <point x="622" y="105" type="line"/>
      <point x="562" y="25"/>
      <point x="497" y="-20"/>
      <point x="401" y="-20" type="curve" smooth="yes"/>
      <point x="237" y="-20"/>
      <point x="148" y="91"/>
      <point x="125" y="273" type="curve"/>
      <point x="51" y="273" type="line"/>
      <point x="59" y="313" type="line"/>
      <point x="487" y="313" type="line"/>
      <point x="479" y="273" type="line"/>
      <point x="185" y="273" type="line"/>
      <point x="205" y="110"/>
      <point x="278" y="35"/>
    </contour>
  </outline>
</glyph>
<glyph name="G.ss10" format="2">
  <advance width="770"/>
  <anchor x="394" y="-19" name="bottom"/>
  <anchor x="394" y="719" name="top"/>
  <outline>
    <contour>
      <point x="687" y="0" type="line"/>
      <point x="697" y="0" type="line"/>
      <point x="697" y="338" type="line"/>
      <point x="363" y="338" type="line"/>
      <point x="363" y="288" type="line"/>
      <point x="615" y="288" type="line"/>
    </contour>
    <contour>
      <point x="407" y="665" type="curve" smooth="yes"/>
      <point x="478" y="665"/>
      <point x="572" y="646"/>
      <point x="643" y="537" type="curve"/>
      <point x="666" y="603" type="line"/>
      <point x="598" y="682"/>
      <point x="501" y="720"/>
      <point x="397" y="720" type="curve" smooth="yes"/>
      <point x="195" y="720"/>
      <point x="73" y="565"/>
      <point x="73" y="355" type="curve" smooth="yes"/>
      <point x="73" y="130"/>
      <point x="197.4" y="-20"/>
      <point x="384" y="-20" type="curve" smooth="yes"/>
      <point x="534" y="-20"/>
      <point x="621" y="100"/>
      <point x="636" y="229" type="curve"/>
      <point x="634" y="315" type="line"/>
      <point x="614" y="334" type="line"/>
      <point x="614" y="330"/>
      <point x="615" y="301"/>
      <point x="615" y="286" type="curve" smooth="yes"/>
      <point x="615" y="144"/>
      <point x="523" y="35"/>
      <point x="390" y="35" type="curve" smooth="yes"/>
      <point x="235.8" y="35"/>
      <point x="133" y="164.2"/>
      <point x="133" y="358" type="curve" smooth="yes"/>
      <point x="133" y="548"/>
      <point x="237" y="665"/>
    </contour>
  </outline>
</glyph>
<glyph name="Germandbls.ss10" format="2">
  <advance width="723"/>
  <outline>
    <contour>
      <point x="470" y="35" type="curve" smooth="yes"/>
      <point x="393" y="35"/>
      <point x="331" y="70"/>
      <point x="298" y="122" type="curve"/>
      <point x="278" y="55" type="line"/>
      <point x="321" y="7"/>
      <point x="387" y="-20"/>
      <point x="470" y="-20" type="curve" smooth="yes"/>
      <point x="580" y="-20"/>
      <point x="654" y="47"/>
      <point x="654" y="129" type="curve" smooth="yes"/>
      <point x="654" y="283"/>
      <point x="393" y="294"/>
      <point x="393" y="405" type="curve" smooth="yes"/>
      <point x="393" y="435"/>
      <point x="412" y="458"/>
      <point x="442" y="484" type="curve" smooth="yes"/>
      <point x="603" y="624" type="line"/>
      <point x="541" y="677"/>
      <point x="456" y="720"/>
      <point x="336" y="720" type="curve" smooth="yes"/>
      <point x="164" y="720"/>
      <point x="104" y="631"/>
      <point x="104" y="499" type="curve" smooth="yes"/>
      <point x="104" y="0" type="line"/>
      <point x="164" y="0" type="line"/>
      <point x="164" y="510" type="line" smooth="yes"/>
      <point x="164" y="623"/>
      <point x="230" y="665"/>
      <point x="336" y="665" type="curve" smooth="yes"/>
      <point x="408" y="665"/>
      <point x="476" y="645"/>
      <point x="516" y="619" type="curve"/>
      <point x="396" y="515" type="line" smooth="yes"/>
      <point x="349" y="474"/>
      <point x="335" y="442"/>
      <point x="335" y="405" type="curve" smooth="yes"/>
      <point x="335" y="257"/>
      <point x="594" y="257"/>
      <point x="594" y="123" type="curve" smooth="yes"/>
      <point x="594" y="63"/>
      <point x="533" y="35"/>
    </contour>
  </outline>
</glyph>
<glyph name="IJ.liga.ss07" format="2">
  <advance width="640"/>
  <outline>
    <contour>
      <point x="193" y="50" type="line"/>
      <point x="193" y="700" type="line"/>
      <point x="133" y="700" type="line"/>
      <point x="133" y="50" type="line"/>
    </contour>
    <contour>
      <point x="133" y="-124" type="line"/>
      <point x="467" y="-124"/>
      <point x="541" y="-48"/>
      <point x="541" y="162" type="curve" smooth="yes"/>
      <point x="541" y="700" type="line"/>
      <point x="481" y="700" type="line"/>
      <point x="481" y="162" type="line" smooth="yes"/>
      <point x="481" y="-22"/>
      <point x="430" y="-70"/>
      <point x="133" y="-70" type="curve"/>
    </contour>
  </outline>
</glyph>
<glyph name="a.ss02" format="2">
  <advance width="580"/>
  <anchor x="287" y="520" name="top"/>
  <anchor x="280" y="-20" name="bottom"/>
  <anchor x="476" y="-3" name="ogonek"/>
  <outline>
    <contour>
      <point x="130" y="142" type="curve" smooth="yes"/>
      <point x="130" y="72"/>
      <point x="183" y="30"/>
      <point x="264" y="30" type="curve" smooth="yes"/>
      <point x="357" y="30"/>
      <point x="416" y="86"/>
      <point x="416" y="177" type="curve"/>
      <point x="427" y="130" type="line"/>
      <point x="409" y="45"/>
      <point x="345" y="-20"/>
      <point x="243" y="-20" type="curve" smooth="yes"/>
      <point x="140" y="-20"/>
      <point x="70" y="47"/>
      <point x="70" y="144" type="curve" smooth="yes"/>
      <point x="70" y="244"/>
      <point x="144" y="308"/>
      <point x="247" y="308" type="curve" smooth="yes"/>
      <point x="347" y="308"/>
      <point x="420" y="247"/>
      <point x="427" y="171" type="curve"/>
      <point x="426" y="134" type="line"/>
      <point x="423" y="209"/>
      <point x="359" y="258"/>
      <point x="270" y="258" type="curve" smooth="yes"/>
      <point x="183" y="258"/>
      <point x="130" y="212"/>
    </contour>
    <contour>
      <point x="284" y="469" type="curve" smooth="yes" name="sv01"/>
      <point x="227" y="469"/>
      <point x="176" y="450"/>
      <point x="130" y="394" type="curve"/>
      <point x="94" y="430" type="line"/>
      <point x="134" y="483"/>
      <point x="202" y="520"/>
      <point x="291" y="520" type="curve" smooth="yes" name="at01"/>
      <point x="419" y="520"/>
      <point x="476" y="444"/>
      <point x="476" y="352" type="curve" smooth="yes"/>
      <point x="476" y="0" type="line"/>
      <point x="416" y="0" type="line"/>
      <point x="416" y="359" type="line" smooth="yes"/>
      <point x="416" y="425"/>
      <point x="370" y="469"/>
    </contour>
  </outline>
</glyph>
<glyph name="a.ss10" format="2">
  <advance width="568"/>
  <anchor x="284" y="520" name="top"/>
  <anchor x="284" y="-20" name="bottom"/>
  <anchor x="473" y="-3" name="ogonek"/>
  <outline>
    <contour>
      <point x="288" y="469" type="curve" smooth="yes"/>
      <point x="209" y="469"/>
      <point x="140" y="434"/>
      <point x="109" y="383" type="curve"/>
      <point x="89" y="445" type="line"/>
      <point x="132" y="493"/>
      <point x="200" y="520"/>
      <point x="283" y="520" type="curve" smooth="yes"/>
      <point x="410" y="520"/>
      <point x="473" y="456"/>
      <point x="473" y="352" type="curve" smooth="yes"/>
      <point x="473" y="-10" type="line"/>
      <point x="413" y="104" type="line"/>
      <point x="413" y="311" type="line"/>
      <point x="402" y="278"/>
      <point x="353" y="236"/>
      <point x="260" y="236" type="curve" smooth="yes"/>
      <point x="157" y="236"/>
      <point x="125" y="185"/>
      <point x="125" y="133" type="curve" smooth="yes"/>
      <point x="125" y="71"/>
      <point x="172" y="30"/>
      <point x="242" y="30" type="curve" smooth="yes"/>
      <point x="340" y="30"/>
      <point x="413" y="109"/>
      <point x="413" y="166" type="curve"/>
      <point x="421" y="138" type="line"/>
      <point x="418" y="79"/>
      <point x="350" y="-20"/>
      <point x="228" y="-20" type="curve" smooth="yes"/>
      <point x="134" y="-20"/>
      <point x="65" y="38"/>
      <point x="65" y="135" type="curve" smooth="yes"/>
      <point x="65" y="232"/>
      <point x="134" y="281"/>
      <point x="255" y="281" type="curve" smooth="yes"/>
      <point x="353" y="281"/>
      <point x="412" y="313"/>
      <point x="412" y="378" type="curve" smooth="yes"/>
      <point x="412" y="435"/>
      <point x="366" y="469"/>
    </contour>
  </outline>
</glyph>
<glyph name="ae.ss13" format="2">
  <advance width="887"/>
  <outline>
    <contour>
      <point x="266" y="520" type="curve" smooth="yes"/>
      <point x="357.86" y="520"/>
      <point x="409.4" y="482.63"/>
      <point x="432" y="428.57" type="curve"/>
      <point x="468.44" y="484.73"/>
      <point x="526.3" y="520"/>
      <point x="604.88" y="520" type="curve" smooth="yes"/>
      <point x="749.23" y="520"/>
      <point x="820" y="402"/>
      <point x="820" y="253" type="curve"/>
      <point x="447" y="253" type="line"/>
      <point x="447" y="113"/>
      <point x="505.06" y="31"/>
      <point x="605.53" y="31" type="curve" smooth="yes"/>
      <point x="688.48" y="31"/>
      <point x="749.31" y="87"/>
      <point x="753" y="167" type="curve"/>
      <point x="814" y="167" type="line"/>
      <point x="804.66" y="62"/>
      <point x="734.097" y="-20"/>
      <point x="606.248" y="-20" type="curve" smooth="yes"/>
      <point x="504.459" y="-20"/>
      <point x="448.12" y="26.5439"/>
      <point x="410.27" y="90" type="curve"/>
      <point x="385.734" y="28.7101"/>
      <point x="306.85" y="-20"/>
      <point x="221" y="-20" type="curve" smooth="yes"/>
      <point x="112.615" y="-20"/>
      <point x="40" y="46.5968"/>
      <point x="40" y="146" type="curve" smooth="yes"/>
      <point x="40" y="243"/>
      <point x="114" y="302"/>
      <point x="216" y="302" type="curve" smooth="yes"/>
      <point x="297.72" y="302"/>
      <point x="362.12" y="264.07"/>
      <point x="386" y="200.94" type="curve"/>
      <point x="386" y="359" type="line" smooth="yes"/>
      <point x="386" y="442"/>
      <point x="330" y="469"/>
      <point x="265" y="469" type="curve" smooth="yes"/>
      <point x="175" y="469"/>
      <point x="128" y="417"/>
      <point x="122" y="341" type="curve"/>
      <point x="61" y="341" type="line"/>
      <point x="71" y="456"/>
      <point x="146" y="520"/>
    </contour>
    <contour>
      <point x="100" y="140" type="curve" smooth="yes"/>
      <point x="100" y="77"/>
      <point x="145" y="30"/>
      <point x="219" y="30" type="curve" smooth="yes"/>
      <point x="292" y="30"/>
      <point x="386" y="66.5501"/>
      <point x="386" y="147.58" type="curve"/>
      <point x="376" y="210.89"/>
      <point x="298.52" y="252"/>
      <point x="231" y="252" type="curve" smooth="yes"/>
      <point x="151" y="252"/>
      <point x="100" y="207"/>
    </contour>
    <contour>
      <point x="447" y="298" type="curve"/>
      <point x="754" y="298" type="line"/>
      <point x="754" y="401"/>
      <point x="695.91" y="470"/>
      <point x="605.57" y="470" type="curve" smooth="yes"/>
      <point x="513.37" y="470"/>
      <point x="447" y="398"/>
    </contour>
  </outline>
</glyph>
<glyph name="ae.ss14" format="2">
  <advance width="867"/>
  <outline>
    <contour>
      <point x="377.47" y="311" type="line"/>
      <point x="366.91" y="278"/>
      <point x="319.87" y="236"/>
      <point x="230.59" y="236" type="curve" smooth="yes"/>
      <point x="131.71" y="236"/>
      <point x="101" y="185"/>
      <point x="101" y="133" type="curve" smooth="yes"/>
      <point x="101" y="71"/>
      <point x="146.11" y="30"/>
      <point x="213.31" y="30" type="curve" smooth="yes"/>
      <point x="307.39" y="30"/>
      <point x="377.47" y="109"/>
      <point x="377.47" y="166" type="curve" smooth="yes"/>
    </contour>
    <contour>
      <point x="436.49" y="293" type="curve"/>
      <point x="745.24" y="293" type="line"/>
      <point x="745.24" y="396"/>
      <point x="679.9" y="470"/>
      <point x="592.76" y="470" type="curve" smooth="yes"/>
      <point x="513.21" y="470"/>
      <point x="436.49" y="408"/>
    </contour>
    <contour>
      <point x="257.47" y="469" type="curve" smooth="yes"/>
      <point x="181.63" y="469"/>
      <point x="115.39" y="434"/>
      <point x="85.63" y="383" type="curve"/>
      <point x="66.43" y="445" type="line"/>
      <point x="107.462" y="493"/>
      <point x="172.359" y="520"/>
      <point x="251.549" y="520" type="curve" smooth="yes"/>
      <point x="340.67" y="520"/>
      <point x="396.75" y="485.38"/>
      <point x="420.34" y="425.71" type="curve"/>
      <point x="458.29" y="485.53"/>
      <point x="519.118" y="520"/>
      <point x="593.71" y="520" type="curve" smooth="yes"/>
      <point x="722.63" y="520"/>
      <point x="808.89" y="415"/>
      <point x="804.14" y="248" type="curve"/>
      <point x="435.07" y="248" type="line"/>
      <point x="435.07" y="227.07" type="line"/>
      <point x="440.81" y="103.74"/>
      <point x="498.17" y="31"/>
      <point x="599.89" y="31" type="curve" smooth="yes"/>
      <point x="669.24" y="31"/>
      <point x="731.94" y="65"/>
      <point x="763.29" y="117" type="curve"/>
      <point x="782.29" y="55" type="line"/>
      <point x="739.24" y="7"/>
      <point x="671.14" y="-20"/>
      <point x="600.63" y="-20" type="curve" smooth="yes"/>
      <point x="493.285" y="-20"/>
      <point x="435.748" y="19.5001"/>
      <point x="394.37" y="121.6" type="curve"/>
      <point x="378.32" y="62.11"/>
      <point x="304.97" y="-20"/>
      <point x="199.87" y="-20" type="curve" smooth="yes"/>
      <point x="109.63" y="-20"/>
      <point x="43.39" y="38"/>
      <point x="43.39" y="135" type="curve" smooth="yes"/>
      <point x="43.39" y="232"/>
      <point x="109.63" y="281"/>
      <point x="225.79" y="281" type="curve" smooth="yes"/>
      <point x="319.87" y="281"/>
      <point x="376.51" y="313"/>
      <point x="376.51" y="378" type="curve" smooth="yes"/>
      <point x="376.51" y="435"/>
      <point x="332.35" y="469"/>
    </contour>
  </outline>
</glyph>
<glyph name="ampersand.ss09" format="2">
  <advance width="660"/>
  <outline>
    <contour>
      <point x="479" y="113" type="line"/>
      <point x="514" y="162" type="line"/>
      <point x="621" y="55" type="line"/>
      <point x="621" y="0" type="line"/>
      <point x="592" y="0" type="line"/>
    </contour>
    <contour>
      <point x="124" y="520" type="line" smooth="yes"/>
      <point x="49" y="609"/>
      <point x="94" y="700"/>
      <point x="214" y="700" type="curve" smooth="yes"/>
      <point x="451" y="700" type="line"/>
      <point x="451" y="646" type="line"/>
      <point x="214" y="646" type="line" smooth="yes"/>
      <point x="145" y="646"/>
      <point x="127" y="602"/>
      <point x="172" y="549" type="curve" smooth="yes"/>
      <point x="307" y="388" type="line"/>
      <point x="216" y="349"/>
      <point x="117" y="288"/>
      <point x="117" y="183" type="curve" smooth="yes"/>
      <point x="117" y="88"/>
      <point x="181" y="35"/>
      <point x="295" y="35" type="curve" smooth="yes"/>
      <point x="441" y="35"/>
      <point x="520" y="122"/>
      <point x="520" y="310" type="curve"/>
      <point x="580" y="310" type="line"/>
      <point x="580" y="99"/>
      <point x="465" y="-20"/>
      <point x="286" y="-20" type="curve" smooth="yes"/>
      <point x="137" y="-20"/>
      <point x="57" y="63"/>
      <point x="57" y="179" type="curve" smooth="yes"/>
      <point x="57" y="296"/>
      <point x="158" y="352"/>
      <point x="234" y="389" type="curve"/>
    </contour>
  </outline>
</glyph>
<glyph name="approxequal.case" format="2">
  <advance width="542"/>
  <outline>
    <contour>
      <point x="459" y="469" type="line"/>
      <point x="442" y="429"/>
      <point x="408" y="417"/>
      <point x="369" y="417" type="curve" smooth="yes"/>
      <point x="333" y="417"/>
      <point x="309" y="427"/>
      <point x="272" y="456" type="curve" smooth="yes"/>
      <point x="239" y="482"/>
      <point x="212" y="496"/>
      <point x="175" y="496" type="curve" smooth="yes"/>
      <point x="117" y="496"/>
      <point x="56" y="461"/>
      <point x="30" y="383" type="curve"/>
      <point x="40" y="383" type="line"/>
      <point x="58" y="426"/>
      <point x="108" y="447"/>
      <point x="153" y="447" type="curve" smooth="yes"/>
      <point x="183" y="447"/>
      <point x="204" y="437"/>
      <point x="244" y="406" type="curve" smooth="yes"/>
      <point x="279" y="379"/>
      <point x="302" y="366"/>
      <point x="344" y="366" type="curve" smooth="yes"/>
      <point x="399" y="366"/>
      <point x="445" y="388"/>
      <point x="469" y="469" type="curve"/>
    </contour>
    <contour>
      <point x="461" y="312" type="line"/>
      <point x="444" y="272"/>
      <point x="410" y="260"/>
      <point x="371" y="260" type="curve" smooth="yes"/>
      <point x="335" y="260"/>
      <point x="311" y="270"/>
      <point x="274" y="299" type="curve" smooth="yes"/>
      <point x="241" y="325"/>
      <point x="214" y="339"/>
      <point x="177" y="339" type="curve" smooth="yes"/>
      <point x="119" y="339"/>
      <point x="58" y="304"/>
      <point x="32" y="226" type="curve"/>
      <point x="42" y="226" type="line"/>
      <point x="60" y="269"/>
      <point x="110" y="290"/>
      <point x="155" y="290" type="curve" smooth="yes"/>
      <point x="185" y="290"/>
      <point x="206" y="280"/>
      <point x="246" y="249" type="curve" smooth="yes"/>
      <point x="281" y="222"/>
      <point x="304" y="209"/>
      <point x="346" y="209" type="curve" smooth="yes"/>
      <point x="401" y="209"/>
      <point x="447" y="231"/>
      <point x="471" y="312" type="curve"/>
    </contour>
  </outline>
</glyph>
<glyph name="at.case" format="2">
  <advance width="885"/>
  <outline>
    <contour>
      <point x="54" y="304" type="curve" smooth="yes"/>
      <point x="54" y="54"/>
      <point x="206" y="-99"/>
      <point x="425" y="-99" type="curve" smooth="yes"/>
      <point x="464" y="-99"/>
      <point x="500" y="-94"/>
      <point x="534" y="-87" type="curve"/>
      <point x="534" y="-37" type="line"/>
      <point x="502" y="-43"/>
      <point x="463" y="-49"/>
      <point x="424" y="-49" type="curve" smooth="yes"/>
      <point x="228" y="-49"/>
      <point x="104" y="88"/>
      <point x="104" y="307" type="curve" smooth="yes"/>
      <point x="104" y="551"/>
      <point x="264" y="671"/>
      <point x="446" y="671" type="curve" smooth="yes"/>
      <point x="651" y="671"/>
      <point x="781" y="537"/>
      <point x="781" y="334" type="curve" smooth="yes"/>
      <point x="781" y="211"/>
      <point x="736.667" y="133"/>
      <point x="664.286" y="133" type="curve" smooth="yes"/>
      <point x="620.857" y="133"/>
      <point x="591" y="162"/>
      <point x="591" y="202" type="curve" smooth="yes"/>
      <point x="591" y="215" type="line"/>
      <point x="622" y="477" type="line"/>
      <point x="578" y="502"/>
      <point x="534" y="520"/>
      <point x="475" y="520" type="curve" smooth="yes"/>
      <point x="328" y="520"/>
      <point x="254" y="409"/>
      <point x="254" y="282" type="curve" smooth="yes"/>
      <point x="254" y="150"/>
      <point x="335" y="81"/>
      <point x="418" y="81" type="curve" smooth="yes"/>
      <point x="487" y="81"/>
      <point x="534" y="129"/>
      <point x="558" y="208" type="curve"/>
      <point x="553.5" y="139"/>
      <point x="588" y="83"/>
      <point x="665" y="83" type="curve" smooth="yes"/>
      <point x="771" y="83"/>
      <point x="831" y="187"/>
      <point x="831" y="339" type="curve" smooth="yes"/>
      <point x="831" y="567"/>
      <point x="674" y="721"/>
      <point x="448" y="721" type="curve" smooth="yes"/>
      <point x="222" y="721"/>
      <point x="54" y="567"/>
    </contour>
    <contour>
      <point x="304" y="275" type="curve" smooth="yes"/>
      <point x="304" y="391"/>
      <point x="361" y="475"/>
      <point x="470" y="475" type="curve" smooth="yes"/>
      <point x="506" y="475"/>
      <point x="544" y="466"/>
      <point x="568" y="447" type="curve"/>
      <point x="545" y="194"/>
      <point x="510" y="126"/>
      <point x="421" y="126" type="curve" smooth="yes"/>
      <point x="347" y="126"/>
      <point x="304" y="174"/>
    </contour>
  </outline>
</glyph>
<glyph name="b.ss11" format="2">
  <advance width="629"/>
  <anchor x="345" y="-20" name="bottom"/>
  <anchor x="330" y="750" name="top"/>
  <outline>
    <contour>
      <point x="153" y="135" type="line"/>
      <point x="153" y="700" type="line"/>
      <point x="93" y="700" type="line"/>
      <point x="93" y="-10" type="line"/>
    </contour>
    <contour>
      <point x="499" y="258" type="curve" smooth="yes" name="ah01"/>
      <point x="499" y="123"/>
      <point x="434" y="30"/>
      <point x="327" y="30" type="curve" smooth="yes" name="dv02"/>
      <point x="225" y="30"/>
      <point x="153" y="116"/>
      <point x="153" y="242" type="curve" smooth="yes" name="sh02"/>
      <point x="153" y="377"/>
      <point x="230" y="469"/>
      <point x="335" y="469" type="curve" smooth="yes" name="sv01"/>
      <point x="435" y="469"/>
      <point x="499" y="387"/>
    </contour>
    <contour>
      <point x="139" y="248" type="curve" smooth="yes"/>
      <point x="139" y="76"/>
      <point x="214" y="-20"/>
      <point x="338" y="-20" type="curve" smooth="yes" name="dv01"/>
      <point x="471" y="-20"/>
      <point x="559" y="89"/>
      <point x="559" y="256" type="curve" smooth="yes" name="sh03"/>
      <point x="559" y="420"/>
      <point x="475" y="520"/>
      <point x="345" y="520" type="curve" smooth="yes" name="at01"/>
      <point x="214" y="520"/>
      <point x="139" y="420"/>
    </contour>
  </outline>
</glyph>
<glyph name="bracketleft.case" format="2">
  <advance width="420"/>
  <outline>
    <contour>
      <point x="347" y="828" type="line"/>
      <point x="107" y="828" type="line"/>
      <point x="107" y="-147" type="line"/>
      <point x="347" y="-147" type="line"/>
      <point x="347" y="-112" type="line"/>
      <point x="166" y="-112" type="line"/>
      <point x="166" y="793" type="line"/>
      <point x="347" y="793" type="line"/>
    </contour>
  </outline>
</glyph>
<glyph name="c.ss10" format="2">
  <advance width="585"/>
  <anchor x="316" y="520" name="top"/>
  <anchor x="316" y="-20" name="bottom"/>
  <outline>
    <contour>
      <point x="318" y="-20" type="curve" smooth="yes"/>
      <point x="395" y="-20"/>
      <point x="463" y="7"/>
      <point x="506" y="55" type="curve"/>
      <point x="486" y="117" type="line"/>
      <point x="453" y="65"/>
      <point x="387" y="31"/>
      <point x="316" y="31" type="curve" smooth="yes"/>
      <point x="209" y="31"/>
      <point x="139" y="107"/>
      <point x="139" y="250" type="curve" smooth="yes"/>
      <point x="139" y="389"/>
      <point x="206" y="469"/>
      <point x="314" y="469" type="curve" smooth="yes"/>
      <point x="386" y="469"/>
      <point x="455" y="434"/>
      <point x="486" y="383" type="curve"/>
      <point x="506" y="445" type="line"/>
      <point x="463" y="493"/>
      <point x="395" y="520"/>
      <point x="317" y="520" type="curve" smooth="yes"/>
      <point x="168" y="520"/>
      <point x="79" y="421"/>
      <point x="79" y="253" type="curve" smooth="yes"/>
      <point x="79" y="89"/>
      <point x="163" y="-20"/>
    </contour>
  </outline>
</glyph>
<glyph name="decyr.ss08" format="2">
  <advance width="781"/>
  <outline>
    <contour>
      <point x="545" y="44" type="line"/>
      <point x="610" y="44" type="line"/>
      <point x="439" y="500" type="line"/>
      <point x="342" y="500" type="line"/>
      <point x="171" y="44" type="line"/>
      <point x="237" y="44" type="line"/>
      <point x="391" y="476" type="line"/>
    </contour>
    <contour>
      <point x="75" y="-140" type="curve"/>
      <point x="132" y="-140" type="line"/>
      <point x="133" y="-107"/>
      <point x="118" y="0"/>
      <point x="178" y="0" type="curve" smooth="yes"/>
      <point x="598" y="0" type="line" smooth="yes"/>
      <point x="665" y="0"/>
      <point x="650" y="-102"/>
      <point x="650" y="-140" type="curve"/>
      <point x="706" y="-140" type="line"/>
      <point x="706" y="3"/>
      <point x="685" y="51"/>
      <point x="591" y="51" type="curve" smooth="yes"/>
      <point x="190" y="51" type="line" smooth="yes"/>
      <point x="96" y="51"/>
      <point x="75" y="3"/>
    </contour>
  </outline>
</glyph>
<glyph name="e.ss10" format="2">
  <advance width="585"/>
  <anchor x="298" y="520" name="top"/>
  <anchor x="298" y="-20" name="bottom"/>
  <anchor x="413" y="-2" name="ogonek"/>
  <outline>
    <contour>
      <point x="130" y="293" type="curve"/>
      <point x="455" y="293" type="line"/>
      <point x="455" y="396"/>
      <point x="386.212" y="470"/>
      <point x="294.494" y="470" type="curve" smooth="yes"/>
      <point x="210.752" y="470"/>
      <point x="130" y="408"/>
    </contour>
    <contour>
      <point x="302" y="31" type="curve" smooth="yes"/>
      <point x="375" y="31"/>
      <point x="441" y="65"/>
      <point x="474" y="117" type="curve"/>
      <point x="494" y="55" type="line"/>
      <point x="448.676" y="7"/>
      <point x="377" y="-20"/>
      <point x="302.77" y="-20" type="curve" smooth="yes"/>
      <point x="155" y="-20"/>
      <point x="68" y="87"/>
      <point x="68" y="251" type="curve" smooth="yes"/>
      <point x="68" y="414"/>
      <point x="159.796" y="520"/>
      <point x="295.494" y="520" type="curve" smooth="yes"/>
      <point x="431.193" y="520"/>
      <point x="522" y="415"/>
      <point x="517" y="248" type="curve"/>
      <point x="128" y="248" type="line"/>
      <point x="128" y="112"/>
      <point x="189" y="31"/>
    </contour>
  </outline>
</glyph>
<glyph name="f.ss11" format="2">
  <advance width="423"/>
  <anchor x="250" y="750" name="top"/>
  <anchor x="183" y="-20" name="bottom"/>
  <outline>
    <contour>
      <point x="159" y="450" type="line"/>
      <point x="159" y="0" type="line"/>
      <point x="219" y="0" type="line"/>
      <point x="219" y="450" type="line"/>
      <point x="360" y="450" type="line"/>
      <point x="360" y="500" type="line"/>
      <point x="219" y="500" type="line"/>
      <point x="219" y="582" type="line" smooth="yes"/>
      <point x="219" y="646"/>
      <point x="235" y="669"/>
      <point x="278" y="669" type="curve" smooth="yes"/>
      <point x="294" y="669"/>
      <point x="324" y="666"/>
      <point x="366" y="658" type="curve"/>
      <point x="366" y="707" type="line"/>
      <point x="327" y="716"/>
      <point x="310" y="720"/>
      <point x="285" y="720" type="curve" smooth="yes"/>
      <point x="201" y="720"/>
      <point x="159" y="676"/>
      <point x="159" y="587" type="curve" smooth="yes"/>
      <point x="159" y="500" type="line"/>
      <point x="42" y="500" type="line"/>
      <point x="42" y="450" type="line"/>
    </contour>
  </outline>
</glyph>
<glyph name="f_f.ss11" format="2">
  <advance width="806"/>
  <outline>
    <contour>
      <point x="159" y="450" type="line"/>
      <point x="159" y="0" type="line"/>
      <point x="219" y="0" type="line"/>
      <point x="219" y="450" type="line"/>
      <point x="360" y="450" type="line"/>
      <point x="360" y="500" type="line"/>
      <point x="219" y="500" type="line"/>
      <point x="219" y="582" type="line" smooth="yes"/>
      <point x="219" y="646"/>
      <point x="235" y="669"/>
      <point x="278" y="669" type="curve" smooth="yes"/>
      <point x="294" y="669"/>
      <point x="324" y="666"/>
      <point x="366" y="658" type="curve"/>
      <point x="366" y="707" type="line"/>
      <point x="327" y="716"/>
      <point x="310" y="720"/>
      <point x="285" y="720" type="curve" smooth="yes"/>
      <point x="201" y="720"/>
      <point x="159" y="676"/>
      <point x="159" y="587" type="curve" smooth="yes"/>
      <point x="159" y="500" type="line"/>
      <point x="42" y="500" type="line"/>
      <point x="42" y="450" type="line"/>
    </contour>
    <contour>
      <point x="542" y="450" type="line"/>
      <point x="542" y="0" type="line"/>
      <point x="602" y="0" type="line"/>
      <point x="602" y="450" type="line"/>
      <point x="743" y="450" type="line"/>
      <point x="743" y="500" type="line"/>
      <point x="602" y="500" type="line"/>
      <point x="602" y="582" type="line" smooth="yes"/>
      <point x="602" y="646"/>
      <point x="618" y="669"/>
      <point x="661" y="669" type="curve" smooth="yes"/>
      <point x="677" y="669"/>
      <point x="707" y="666"/>
      <point x="749" y="658" type="curve"/>
      <point x="749" y="707" type="line"/>
      <point x="710" y="716"/>
      <point x="693" y="720"/>
      <point x="668" y="720" type="curve" smooth="yes"/>
      <point x="584" y="720"/>
      <point x="542" y="676"/>
      <point x="542" y="587" type="curve" smooth="yes"/>
      <point x="542" y="500" type="line"/>
      <point x="318.908" y="500" type="line"/>
      <point x="318.908" y="450" type="line"/>
    </contour>
  </outline>
</glyph>
<glyph name="g.ss03" format="2">
  <advance width="590"/>
  <anchor x="295" y="-220" name="bottom"/>
  <anchor x="295" y="520" name="top"/>
  <outline>
    <contour>
      <point x="295" y="124" type="curve" smooth="yes" name="dv05"/>
      <point x="417" y="124"/>
      <point x="501" y="206"/>
      <point x="501" y="322" type="curve" smooth="yes" name="sv14"/>
      <point x="501" y="437"/>
      <point x="415" y="520"/>
      <point x="296" y="520" type="curve" smooth="yes" name="at01"/>
      <point x="175" y="520"/>
      <point x="89" y="435"/>
      <point x="89" y="318" type="curve" smooth="yes"/>
      <point x="89" y="202"/>
      <point x="177" y="124"/>
    </contour>
    <contour>
      <point x="295" y="470" type="curve" smooth="yes" name="sv01"/>
      <point x="385" y="470"/>
      <point x="441" y="416"/>
      <point x="441" y="317" type="curve" smooth="yes" name="sv13"/>
      <point x="441" y="222"/>
      <point x="378" y="174"/>
      <point x="293" y="174" type="curve" smooth="yes" name="dv06"/>
      <point x="210" y="174"/>
      <point x="149" y="223"/>
      <point x="149" y="312" type="curve" smooth="yes" name="sv09"/>
      <point x="149" y="412"/>
      <point x="205" y="470"/>
    </contour>
    <contour>
      <point x="308" y="-170" type="curve" smooth="yes" name="dv02"/>
      <point x="194" y="-170"/>
      <point x="141" y="-128"/>
      <point x="136" y="-33" type="curve" name="sv04"/>
      <point x="76" y="-33" type="line" name="sv12"/>
      <point x="83" y="-153"/>
      <point x="164" y="-220"/>
      <point x="311" y="-220" type="curve" smooth="yes" name="dv01"/>
      <point x="445" y="-220"/>
      <point x="524" y="-165"/>
      <point x="524" y="-65" type="curve" smooth="yes" name="sv08"/>
      <point x="524" y="24"/>
      <point x="461" y="55"/>
      <point x="290" y="55" type="curve" smooth="yes" name="sv05"/>
      <point x="156" y="55"/>
      <point x="119" y="74"/>
      <point x="119" y="107" type="curve" smooth="yes" name="sv06"/>
      <point x="119" y="136"/>
      <point x="148" y="165"/>
      <point x="185" y="172" type="curve" name="sv10"/>
      <point x="181" y="209" type="line" name="sv11"/>
      <point x="103" y="185"/>
      <point x="72" y="154"/>
      <point x="72" y="104" type="curve" smooth="yes"/>
      <point x="72" y="35"/>
      <point x="133" y="11"/>
      <point x="288" y="11" type="curve" smooth="yes" name="ab01"/>
      <point x="429" y="11"/>
      <point x="466" y="-9"/>
      <point x="466" y="-65" type="curve" smooth="yes" name="sv07"/>
      <point x="466" y="-134"/>
      <point x="414" y="-170"/>
    </contour>
    <contour>
      <point x="553" y="537" type="curve" smooth="yes"/>
      <point x="553" y="560"/>
      <point x="537" y="574"/>
      <point x="514" y="574" type="curve" smooth="yes" name="dv04"/>
      <point x="474" y="574"/>
      <point x="419" y="532"/>
      <point x="399" y="450" type="curve" name="sv02"/>
      <point x="406" y="446" type="line" name="sv03"/>
      <point x="415" y="503"/>
      <point x="463" y="534"/>
      <point x="479" y="540" type="curve" name="at02"/>
      <point x="479" y="516"/>
      <point x="496" y="497"/>
      <point x="518" y="497" type="curve" smooth="yes" name="dv03"/>
      <point x="540" y="497"/>
      <point x="553" y="516"/>
    </contour>
  </outline>
</glyph>
<glyph name="g.ss12" format="2">
  <advance width="635"/>
  <anchor x="308" y="-220" name="bottom"/>
  <anchor x="317" y="520" name="top"/>
  <outline>
    <contour>
      <point x="290" y="-20" type="curve" smooth="yes"/>
      <point x="417" y="-20"/>
      <point x="484" y="77"/>
      <point x="484" y="253" type="curve" smooth="yes"/>
      <point x="484" y="427"/>
      <point x="418" y="520"/>
      <point x="289.212" y="520" type="curve" smooth="yes"/>
      <point x="155" y="520"/>
      <point x="70" y="419"/>
      <point x="70" y="254" type="curve" smooth="yes"/>
      <point x="70" y="88"/>
      <point x="155" y="-20"/>
    </contour>
    <contour>
      <point x="300" y="30" type="curve" smooth="yes"/>
      <point x="194" y="30"/>
      <point x="130" y="118"/>
      <point x="130" y="252" type="curve" smooth="yes"/>
      <point x="130" y="388"/>
      <point x="195" y="469"/>
      <point x="303" y="469" type="curve" smooth="yes"/>
      <point x="408" y="469"/>
      <point x="472" y="392"/>
      <point x="472" y="256" type="curve" smooth="yes"/>
      <point x="472" y="116"/>
      <point x="404" y="30"/>
    </contour>
    <contour>
      <point x="92" y="-152" type="line"/>
      <point x="150" y="-198"/>
      <point x="224" y="-220"/>
      <point x="307" y="-220" type="curve" smooth="yes"/>
      <point x="462" y="-220"/>
      <point x="532" y="-144"/>
      <point x="532" y="32" type="curve" smooth="yes"/>
      <point x="532" y="500" type="line"/>
      <point x="472" y="500" type="line"/>
      <point x="472" y="16" type="line" smooth="yes"/>
      <point x="472" y="-88"/>
      <point x="442" y="-170"/>
      <point x="303" y="-170" type="curve" smooth="yes"/>
      <point x="234" y="-170"/>
      <point x="164" y="-150"/>
      <point x="99" y="-97" type="curve"/>
    </contour>
  </outline>
</glyph>
<glyph name="germandbls.ss12" format="2">
  <advance width="730"/>
  <outline>
    <contour>
      <point x="467" y="30" type="curve" smooth="yes"/>
      <point x="407" y="30"/>
      <point x="350" y="56"/>
      <point x="290" y="114" type="curve"/>
      <point x="283" y="69" type="line"/>
      <point x="340" y="5"/>
      <point x="395" y="-20"/>
      <point x="469" y="-20" type="curve" smooth="yes"/>
      <point x="591" y="-20"/>
      <point x="652" y="49"/>
      <point x="652" y="129" type="curve" smooth="yes"/>
      <point x="652" y="279"/>
      <point x="441" y="266"/>
      <point x="441" y="373" type="curve" smooth="yes"/>
      <point x="441" y="438"/>
      <point x="538" y="450"/>
      <point x="538" y="567" type="curve" smooth="yes"/>
      <point x="538" y="676"/>
      <point x="454" y="750"/>
      <point x="324" y="750" type="curve" smooth="yes"/>
      <point x="189" y="750"/>
      <point x="104" y="670"/>
      <point x="104" y="535" type="curve" smooth="yes"/>
      <point x="104" y="0" type="line"/>
      <point x="164" y="0" type="line"/>
      <point x="164" y="548" type="line" smooth="yes"/>
      <point x="164" y="639"/>
      <point x="219" y="699"/>
      <point x="323" y="699" type="curve" smooth="yes"/>
      <point x="407" y="699"/>
      <point x="478" y="670"/>
      <point x="478" y="571" type="curve" smooth="yes"/>
      <point x="478" y="458"/>
      <point x="381" y="445"/>
      <point x="381" y="356" type="curve" smooth="yes"/>
      <point x="381" y="234"/>
      <point x="592" y="247"/>
      <point x="592" y="123" type="curve" smooth="yes"/>
      <point x="592" y="66"/>
      <point x="538" y="30"/>
    </contour>
  </outline>
</glyph>
<glyph name="lira.ss09" format="2">
  <advance width="660"/>
  <outline>
    <contour>
      <point x="57" y="0" type="line"/>
      <point x="597" y="0" type="line"/>
      <point x="597" y="54" type="line"/>
      <point x="130" y="54" type="line"/>
      <point x="180" y="83"/>
      <point x="196" y="147"/>
      <point x="198" y="255" type="curve"/>
      <point x="472" y="255" type="line"/>
      <point x="472" y="275" type="line"/>
      <point x="199" y="275" type="line"/>
      <point x="199" y="395" type="line"/>
      <point x="472" y="395" type="line"/>
      <point x="472" y="415" type="line"/>
      <point x="199" y="415" type="line"/>
      <point x="199" y="589"/>
      <point x="254" y="665"/>
      <point x="362" y="665" type="curve" smooth="yes"/>
      <point x="453" y="665"/>
      <point x="513" y="617"/>
      <point x="536" y="499" type="curve"/>
      <point x="596" y="499" type="line"/>
      <point x="581" y="626"/>
      <point x="499" y="720"/>
      <point x="359" y="720" type="curve" smooth="yes"/>
      <point x="210" y="720"/>
      <point x="139" y="603"/>
      <point x="139" y="415" type="curve"/>
      <point x="61" y="415" type="line"/>
      <point x="61" y="395" type="line"/>
      <point x="139" y="395" type="line"/>
      <point x="139" y="275" type="line"/>
      <point x="61" y="275" type="line"/>
      <point x="61" y="255" type="line"/>
      <point x="139" y="255" type="line"/>
      <point x="139" y="137"/>
      <point x="103" y="52"/>
      <point x="57" y="24" type="curve"/>
    </contour>
  </outline>
</glyph>
<glyph name="oe.ss09" format="2">
  <advance width="954"/>
  <outline>
    <contour>
      <point x="73.26" y="250" type="curve" smooth="yes"/>
      <point x="73.26" y="79"/>
      <point x="147.52" y="-20"/>
      <point x="288.52" y="-20" type="curve" smooth="yes" name="dv01"/>
      <point x="428.58" y="-20"/>
      <point x="503.78" y="79"/>
      <point x="503.78" y="250" type="curve" smooth="yes"/>
      <point x="503.78" y="421"/>
      <point x="428.58" y="520"/>
      <point x="288.52" y="520" type="curve" smooth="yes" name="at01"/>
      <point x="147.52" y="520"/>
      <point x="73.26" y="421"/>
    </contour>
    <contour>
      <point x="447.38" y="248" type="curve" smooth="yes"/>
      <point x="447.38" y="102"/>
      <point x="394.74" y="31"/>
      <point x="288.52" y="31" type="curve" smooth="yes" name="dv02"/>
      <point x="180.42" y="31"/>
      <point x="129.66" y="105"/>
      <point x="129.66" y="253" type="curve" smooth="yes"/>
      <point x="129.66" y="400"/>
      <point x="183.24" y="469"/>
      <point x="288.52" y="469" type="curve" smooth="yes" name="sv01"/>
      <point x="396.62" y="469"/>
      <point x="447.38" y="397"/>
    </contour>
    <contour>
      <point x="505.26" y="298" type="line"/>
      <point x="505.26" y="398"/>
      <point x="572.94" y="470"/>
      <point x="666.94" y="470" type="curve" smooth="yes"/>
      <point x="759.06" y="470"/>
      <point x="818.28" y="401"/>
      <point x="818.28" y="298" type="curve"/>
    </contour>
    <contour>
      <point x="666.94" y="31" type="curve" smooth="yes"/>
      <point x="564.48" y="31"/>
      <point x="505.26" y="113"/>
      <point x="505.26" y="253" type="curve"/>
      <point x="880.32" y="253" type="line"/>
      <point x="880.32" y="402"/>
      <point x="809.82" y="520"/>
      <point x="666" y="520" type="curve" smooth="yes"/>
      <point x="522.18" y="520"/>
      <point x="447.92" y="401"/>
      <point x="447.92" y="252" type="curve" smooth="yes"/>
      <point x="447.92" y="95"/>
      <point x="529.7" y="-20"/>
      <point x="670.7" y="-20" type="curve" smooth="yes"/>
      <point x="789.14" y="-20"/>
      <point x="865.28" y="62"/>
      <point x="874.68" y="167" type="curve"/>
      <point x="817.34" y="167" type="line"/>
      <point x="813.58" y="87"/>
      <point x="751.54" y="31"/>
    </contour>
  </outline>
</glyph>
<glyph name="parenleft.case" format="2">
  <advance width="391"/>
  <outline>
    <contour>
      <point x="365" y="-155" type="curve"/>
      <point x="365" y="-135" type="line"/>
      <point x="233" y="-104"/>
      <point x="139" y="97"/>
      <point x="139" y="353" type="curve" smooth="yes"/>
      <point x="139" y="601"/>
      <point x="230" y="786"/>
      <point x="365" y="817" type="curve"/>
      <point x="365" y="837" type="line"/>
      <point x="188" y="801"/>
      <point x="80" y="625"/>
      <point x="80" y="370" type="curve" smooth="yes"/>
      <point x="80" y="86"/>
      <point x="200" y="-134"/>
    </contour>
  </outline>
</glyph>
<glyph name="s.ss10" format="2">
  <advance width="522"/>
  <anchor x="255" y="520" name="top"/>
  <anchor x="265" y="-20" name="bottom"/>
  <outline>
    <contour>
      <point x="263" y="31" type="curve" smooth="yes"/>
      <point x="343" y="31"/>
      <point x="384" y="68"/>
      <point x="384" y="125" type="curve" smooth="yes"/>
      <point x="384" y="191.956"/>
      <point x="318.113" y="208.59"/>
      <point x="247.187" y="226.497" type="curve" smooth="yes"/>
      <point x="164.516" y="247.368"/>
      <point x="75" y="269.968"/>
      <point x="75" y="376" type="curve" smooth="yes"/>
      <point x="75" y="466"/>
      <point x="134" y="520"/>
      <point x="244" y="520" type="curve" smooth="yes"/>
      <point x="321" y="520"/>
      <point x="389" y="493"/>
      <point x="432" y="445" type="curve"/>
      <point x="412" y="383" type="line"/>
      <point x="381" y="434"/>
      <point x="312" y="469"/>
      <point x="240" y="469" type="curve" smooth="yes"/>
      <point x="172" y="469"/>
      <point x="135" y="437"/>
      <point x="135" y="380" type="curve" smooth="yes"/>
      <point x="135" y="308.125"/>
      <point x="205.01" y="289.494"/>
      <point x="278.381" y="269.968" type="curve" smooth="yes"/>
      <point x="359.154" y="248.473"/>
      <point x="444" y="225.893"/>
      <point x="444" y="130" type="curve" smooth="yes"/>
      <point x="444" y="36"/>
      <point x="378" y="-20"/>
      <point x="259" y="-20" type="curve" smooth="yes"/>
      <point x="176" y="-20"/>
      <point x="110" y="7"/>
      <point x="67" y="55" type="curve"/>
      <point x="87" y="117" type="line"/>
      <point x="120" y="65"/>
      <point x="186" y="31"/>
    </contour>
  </outline>
</glyph>
<glyph name="s.ss12" format="2">
  <advance width="510"/>
  <anchor x="245" y="520" name="top"/>
  <anchor x="265" y="-20" name="bottom"/>
  <outline>
    <contour>
      <point x="127" y="372.672" type="curve" smooth="yes"/>
      <point x="127" y="431"/>
      <point x="166" y="469"/>
      <point x="240" y="469" type="curve" smooth="yes"/>
      <point x="306" y="469"/>
      <point x="343" y="445"/>
      <point x="405" y="397" type="curve"/>
      <point x="412" y="442" type="line"/>
      <point x="369" y="492"/>
      <point x="302" y="520"/>
      <point x="232" y="520" type="curve" smooth="yes"/>
      <point x="131" y="520"/>
      <point x="67" y="463"/>
      <point x="67" y="371.947" type="curve" smooth="yes"/>
      <point x="67" y="277.126"/>
      <point x="151.816" y="248.386"/>
      <point x="231.995" y="230.671" type="curve" smooth="yes"/>
      <point x="303.86" y="214.792"/>
      <point x="372" y="199.737"/>
      <point x="372" y="124.258" type="curve" smooth="yes"/>
      <point x="372" y="65"/>
      <point x="330" y="30"/>
      <point x="255" y="30" type="curve" smooth="yes"/>
      <point x="191" y="30"/>
      <point x="134" y="56"/>
      <point x="74" y="114" type="curve"/>
      <point x="67" y="69" type="line"/>
      <point x="124" y="5"/>
      <point x="179" y="-20"/>
      <point x="254" y="-20" type="curve" smooth="yes"/>
      <point x="367" y="-20"/>
      <point x="432" y="36"/>
      <point x="432" y="129.673" type="curve" smooth="yes"/>
      <point x="432" y="226.661"/>
      <point x="347.208" y="255.26"/>
      <point x="267.04" y="272.844" type="curve" smooth="yes"/>
      <point x="195.162" y="288.611"/>
      <point x="127" y="295.562"/>
    </contour>
  </outline>
</glyph>
<glyph name="shchacyr.loclBGR" format="2">
  <advance width="964"/>
  <outline>
    <component base="shacyr.loclBGR" xOffset="-2"/>
    <contour>
      <point x="807" y="0" type="line"/>
      <point x="875" y="0"/>
      <point x="873" y="-52"/>
      <point x="873" y="-140" type="curve"/>
      <point x="928" y="-140" type="line"/>
      <point x="928" y="17"/>
      <point x="908" y="49"/>
      <point x="807" y="49" type="curve"/>
    </contour>
  </outline>
</glyph>
<glyph name="six.osf" format="2">
  <advance width="631"/>
  <outline>
    <contour>
      <point x="323" y="665" type="curve" smooth="yes"/>
      <point x="391" y="665"/>
      <point x="449" y="642"/>
      <point x="496" y="594" type="curve"/>
      <point x="539" y="637" type="line"/>
      <point x="490" y="689"/>
      <point x="407" y="720"/>
      <point x="321" y="720" type="curve" smooth="yes"/>
      <point x="157" y="720"/>
      <point x="58" y="575"/>
      <point x="58" y="334" type="curve" smooth="yes"/>
      <point x="58" y="102"/>
      <point x="149" y="-20"/>
      <point x="314" y="-20" type="curve" smooth="yes"/>
      <point x="470" y="-20"/>
      <point x="569" y="89"/>
      <point x="569" y="226" type="curve" smooth="yes"/>
      <point x="569" y="367"/>
      <point x="465" y="458"/>
      <point x="327" y="458" type="curve" smooth="yes"/>
      <point x="220" y="458"/>
      <point x="140" y="403"/>
      <point x="111" y="338" type="curve"/>
      <point x="111" y="538.23"/>
      <point x="193.188" y="665"/>
    </contour>
    <contour>
      <point x="322" y="408" type="curve" smooth="yes"/>
      <point x="432" y="408"/>
      <point x="508" y="346"/>
      <point x="508" y="226" type="curve" smooth="yes"/>
      <point x="508" y="110"/>
      <point x="436" y="35"/>
      <point x="321" y="35" type="curve" smooth="yes"/>
      <point x="209" y="35"/>
      <point x="128" y="106"/>
      <point x="128" y="223" type="curve" smooth="yes"/>
      <point x="128" y="335"/>
      <point x="202" y="408"/>
    </contour>
  </outline>
</glyph>
<glyph name="three.ss12.osf" format="2">
  <advance width="550"/>
  <outline>
    <contour>
      <point x="192" y="234" type="curve"/>
      <point x="192" y="199" type="line"/>
      <point x="380" y="199"/>
      <point x="470" y="273.615"/>
      <point x="470" y="389.682" type="curve" smooth="yes"/>
      <point x="470" y="501.603"/>
      <point x="388" y="570"/>
      <point x="275" y="570" type="curve" smooth="yes"/>
      <point x="185" y="570"/>
      <point x="118" y="530"/>
      <point x="44" y="445" type="curve"/>
      <point x="50" y="396" type="line"/>
      <point x="120" y="475"/>
      <point x="197" y="515"/>
      <point x="277" y="515" type="curve" smooth="yes"/>
      <point x="352" y="515"/>
      <point x="410" y="477.254"/>
      <point x="410" y="391.276" type="curve" smooth="yes"/>
      <point x="410" y="307.396"/>
      <point x="351" y="234"/>
    </contour>
    <contour>
      <point x="192" y="178" type="line"/>
      <point x="365" y="178"/>
      <point x="430" y="103.456"/>
      <point x="430" y="19.5936" type="curve" smooth="yes"/>
      <point x="430" y="-64.2685"/>
      <point x="369" y="-115"/>
      <point x="278" y="-115" type="curve" smooth="yes"/>
      <point x="195" y="-115"/>
      <point x="119" y="-73"/>
      <point x="50" y="4" type="curve"/>
      <point x="44" y="-45" type="line"/>
      <point x="117" y="-129"/>
      <point x="183" y="-170"/>
      <point x="275" y="-170" type="curve" smooth="yes"/>
      <point x="391" y="-170"/>
      <point x="490" y="-101.204"/>
      <point x="490" y="19.9598" type="curve" smooth="yes"/>
      <point x="490" y="137.016"/>
      <point x="394" y="213"/>
      <point x="192" y="213" type="curve"/>
    </contour>
  </outline>
</glyph>
<glyph name="vecyr.loclBGR" format="2">
  <advance width="556"/>
  <anchor x="273" y="520" name="top"/>
  <anchor x="273" y="-20" name="bottom"/>
  <outline>
    <contour>
      <point x="294.27" y="-20" type="curve" smooth="yes"/>
      <point x="170.9" y="-20"/>
      <point x="100.37" y="38.7099"/>
      <point x="100.37" y="140.16" type="curve" smooth="yes"/>
      <point x="100.37" y="589.86" type="line" smooth="yes"/>
      <point x="100.37" y="691.3"/>
      <point x="167.25" y="750.02"/>
      <point x="284.23" y="750.02" type="curve" smooth="yes"/>
      <point x="400" y="750.02"/>
      <point x="466" y="673.02"/>
      <point x="466" y="555.62" type="curve" smooth="yes"/>
      <point x="466" y="481.02"/>
      <point x="436.06" y="426.05"/>
      <point x="386.22" y="394.8" type="curve"/>
      <point x="449.91" y="363.3"/>
      <point x="486" y="295.93"/>
      <point x="486" y="199.63" type="curve" smooth="yes"/>
      <point x="486" y="67"/>
      <point x="416.38" y="-20"/>
    </contour>
    <contour>
      <point x="160.13" y="365" type="line"/>
      <point x="160.37" y="136.53" type="line" smooth="yes"/>
      <point x="160.44" y="69.02"/>
      <point x="206.88" y="30"/>
      <point x="292.55" y="30" type="curve" smooth="yes"/>
      <point x="379.06" y="30"/>
      <point x="426" y="92.09"/>
      <point x="426" y="196.68" type="curve" smooth="yes"/>
      <point x="426" y="302.89"/>
      <point x="376.83" y="365"/>
      <point x="299.89" y="365" type="curve" smooth="yes"/>
    </contour>
    <contour>
      <point x="160.19" y="415.02" type="line"/>
      <point x="288" y="415.02" type="line" smooth="yes"/>
      <point x="360" y="415.02"/>
      <point x="406" y="467.85"/>
      <point x="406" y="558.21" type="curve" smooth="yes"/>
      <point x="406" y="647.19"/>
      <point x="365.37" y="700.02"/>
      <point x="285.37" y="700.02" type="curve" smooth="yes"/>
      <point x="206.16" y="700.02"/>
      <point x="160.44" y="661"/>
      <point x="160.37" y="593.48" type="curve" smooth="yes"/>
    </contour>
  </outline>
</glyph>
